<svg width="254" height="188" viewBox="0 0 254 188" fill="none" xmlns="http://www.w3.org/2000/svg">
<rect x="0.5" y="0.5" width="253" height="187" rx="4.5" fill="white"/>
<path d="M113.925 103.327C112.807 102.939 111.991 102.234 111.443 101.17C111.174 100.649 111.153 100.506 111.12 99.0029C111.077 97.5001 111.088 97.3978 111.303 97.1934C111.593 96.9173 112.302 96.8969 112.592 97.1729C112.754 97.3263 112.796 97.5716 112.839 98.6247C112.904 100.035 113.044 100.496 113.602 101.048C113.796 101.242 114.14 101.487 114.376 101.61L114.806 101.835H124.745C135.705 101.835 135.157 101.866 135.952 101.181C136.629 100.608 136.801 100.107 136.865 98.6247C136.908 97.5716 136.951 97.3263 137.112 97.1729C137.402 96.8969 138.112 96.9173 138.402 97.1934C138.617 97.3978 138.627 97.5001 138.584 99.0029C138.552 100.536 138.541 100.639 138.241 101.221C137.832 102.009 137.016 102.786 136.188 103.174L135.544 103.471L125.014 103.491C114.956 103.511 114.462 103.511 113.925 103.327Z" fill="#292929"/>
<path d="M121.629 100.046C121.489 99.9129 121.414 99.7084 121.414 99.4324C121.414 99.1563 121.489 98.9519 121.629 98.819C121.833 98.6247 121.983 98.6145 124.852 98.6145C127.721 98.6145 127.872 98.6247 128.076 98.819C128.215 98.9519 128.291 99.1563 128.291 99.4324C128.291 99.7084 128.215 99.9129 128.076 100.046C127.872 100.24 127.721 100.25 124.852 100.25C121.983 100.25 121.833 100.24 121.629 100.046Z" fill="#292929"/>
<path d="M112.066 95.1384C107.306 94.1672 103.674 90.7116 102.718 86.2439C102.427 84.874 102.427 82.9111 102.718 81.5411C103.685 77.053 107.327 73.5872 112.119 72.6365C113.463 72.3706 115.601 72.3706 117.008 72.6467C121.725 73.5668 125.368 77.0326 126.367 81.5922C126.647 82.8497 126.647 84.9353 126.367 86.1928C125.368 90.7525 121.725 94.2183 117.008 95.1384C115.622 95.4042 113.377 95.4042 112.066 95.1384ZM116.299 93.4924C120.028 92.9199 123.219 90.1902 124.39 86.5813C124.659 85.7532 124.68 85.5487 124.68 83.8925C124.68 82.2261 124.659 82.0421 124.379 81.1833C124.046 80.161 123.423 78.9546 122.821 78.1878L122.424 77.6664L122.22 78.0242C121.736 78.883 120.393 79.9156 119.211 80.345C118.599 80.5597 118.405 80.5699 114.763 80.6006C111.099 80.6312 110.937 80.621 110.164 80.4063C108.853 80.0281 107.402 78.9853 106.854 78.0242L106.65 77.6664L106.253 78.1878C105.64 78.9648 105.017 80.1712 104.695 81.1833C104.351 82.3079 104.222 84.281 104.437 85.4874C105.028 89.0043 107.821 92.0713 111.421 93.1755C113.033 93.6662 114.494 93.7582 116.299 93.4924ZM117.589 78.8932C118.953 78.7194 120.189 77.922 120.823 76.7974L121.038 76.4192L120.737 76.1738C119.942 75.5093 118.147 74.7323 116.74 74.4256C115.569 74.17 113.506 74.17 112.334 74.4256C110.927 74.7323 109.132 75.5093 108.337 76.1738L108.036 76.4192L108.251 76.7974C108.853 77.8811 110.142 78.7297 111.389 78.883C112.281 78.9955 116.708 78.9955 117.589 78.8932Z" fill="#292929"/>
<path d="M113.065 90.2414C111.937 89.8427 111.131 89.1475 110.583 88.0843C110.314 87.5731 110.293 87.4197 110.293 86.3463C110.293 85.2524 110.314 85.1297 110.604 84.5572C111.013 83.7699 111.829 82.993 112.657 82.6045C113.258 82.3284 113.387 82.308 114.537 82.308C115.687 82.308 115.816 82.3284 116.417 82.6045C117.245 82.993 118.061 83.7699 118.47 84.5572C118.76 85.1297 118.781 85.2524 118.781 86.3463C118.781 87.4402 118.76 87.5629 118.47 88.1354C118.061 88.9226 117.245 89.6996 116.417 90.0778C115.859 90.3437 115.633 90.3846 114.698 90.4152C113.849 90.4357 113.505 90.3948 113.065 90.2414ZM115.483 88.5341C116.396 88.1763 117.008 87.3073 117.008 86.3463C117.008 85.0274 115.923 83.9949 114.537 83.9949C113.151 83.9949 112.066 85.0274 112.066 86.3463C112.066 87.2664 112.614 88.074 113.516 88.5239C113.935 88.7386 114.967 88.7386 115.483 88.5341Z" fill="#292929"/>
<path d="M132.073 95.1282C130.826 94.6681 130.01 93.4617 130.01 92.0713C130.01 90.7423 130.697 89.6586 131.89 89.1065L132.427 88.8509L138.455 88.8203C144.376 88.7998 144.505 88.7998 145.096 89.0145C147.9 90.0062 147.9 94.1365 145.106 95.1282C144.526 95.3326 144.333 95.3429 138.574 95.3326C132.879 95.3326 132.621 95.3224 132.073 95.1282ZM144.515 93.4413C145.665 92.7972 145.665 91.3455 144.515 90.7014C144.15 90.4969 144 90.4867 138.606 90.4867C133.212 90.4867 133.061 90.4969 132.696 90.7014C131.342 91.4477 131.632 93.2573 133.158 93.6151C133.341 93.656 135.898 93.6867 138.821 93.6764C143.978 93.656 144.15 93.6458 144.515 93.4413Z" fill="#292929"/>
<path d="M137.144 87.021C136.94 86.8778 136.94 86.5814 136.887 72.4729C136.833 58.1396 136.833 58.0782 136.607 57.6182C136.339 57.0661 135.672 56.4629 135.103 56.2789C134.48 56.0642 115.225 56.0642 114.601 56.2789C114.032 56.4629 113.366 57.0661 113.097 57.6182C112.882 58.068 112.871 58.2623 112.818 64.2941C112.764 70.3055 112.753 70.5202 112.56 70.6634C112.238 70.8781 111.571 70.8474 111.313 70.602C111.099 70.3976 111.088 70.3055 111.12 63.875L111.152 57.3626L111.464 56.7492C111.872 55.962 112.689 55.185 113.516 54.7965L114.161 54.5H124.852H135.543L136.188 54.7965C137.015 55.185 137.832 55.962 138.24 56.7492C138.552 57.3524 138.552 57.383 138.584 59.3766C138.616 61.36 138.627 61.3804 138.831 61.1862C139.003 61.0226 139.197 60.9919 140.196 60.9919C141.647 60.9919 141.657 61.0022 142.001 62.4948C142.141 63.0877 142.27 63.5887 142.291 63.5989C142.302 63.6091 142.71 63.7625 143.194 63.9465L144.086 64.2839L145.031 63.7114C146.45 62.8628 146.525 62.8731 147.932 64.1919C148.545 64.7644 149.125 65.3778 149.2 65.5618C149.383 65.9708 149.308 66.1957 148.577 67.2487L148.04 68.0461L148.394 68.8845C148.588 69.3548 148.76 69.7432 148.77 69.7637C148.781 69.7841 149.318 69.9068 149.963 70.05C151.553 70.3873 151.5 70.2953 151.5 72.4934C151.5 74.078 151.478 74.2723 151.306 74.4256C151.188 74.5176 150.586 74.7017 149.942 74.8448C149.308 74.9777 148.781 75.1004 148.77 75.1208C148.76 75.1413 148.588 75.5298 148.394 75.9898L148.04 76.8281L148.62 77.7278C148.953 78.2185 149.243 78.7093 149.275 78.8115C149.404 79.1591 149.061 79.6498 147.932 80.7029C146.525 82.0115 146.45 82.0217 145.031 81.1731L144.075 80.6006L143.194 80.938C142.71 81.122 142.302 81.2856 142.291 81.2856C142.27 81.2958 142.141 81.7968 142.001 82.3897C141.657 83.8824 141.647 83.8926 140.196 83.8926C139.175 83.8926 139.014 83.8721 138.821 83.6881L138.606 83.4836V85.1194C138.606 86.6223 138.584 86.7756 138.391 86.9596C138.133 87.205 137.456 87.2357 137.144 87.021ZM139.605 82.2568H140.174L140.379 81.2754C140.486 80.7335 140.669 80.1815 140.776 80.0588C140.884 79.9156 141.27 79.7316 141.679 79.5987C142.076 79.476 142.732 79.2204 143.129 79.0262C143.538 78.8319 143.978 78.6786 144.118 78.6786C144.258 78.6786 144.601 78.8217 144.902 78.9955C145.192 79.1795 145.601 79.4249 145.816 79.5578L146.202 79.793L146.697 79.3125L147.18 78.8319L146.6 77.9732C146.278 77.4927 146.02 77.0019 146.02 76.869C146.02 76.7361 146.181 76.317 146.385 75.9387C146.578 75.5604 146.847 74.9572 146.976 74.5892C147.105 74.2211 147.245 73.8735 147.288 73.8122C147.417 73.618 147.76 73.4953 148.738 73.3113L149.673 73.1272V72.4423V71.7573L148.738 71.5733C147.76 71.3892 147.417 71.2666 147.288 71.0723C147.245 71.011 147.105 70.6634 146.976 70.2953C146.847 69.9273 146.578 69.3241 146.385 68.9458C146.181 68.5675 146.02 68.1484 146.02 68.0155C146.02 67.8826 146.278 67.3918 146.6 66.9113L147.18 66.0526L146.697 65.5721L146.202 65.0916L145.816 65.3267C145.601 65.4596 145.192 65.705 144.902 65.889C144.601 66.0628 144.258 66.2059 144.118 66.2059C143.978 66.2059 143.538 66.0526 143.129 65.8583C142.732 65.6641 142.076 65.4085 141.679 65.2858C141.27 65.1529 140.884 64.9689 140.776 64.8257C140.669 64.7031 140.486 64.151 140.379 63.6091L140.174 62.6277H139.605C139.175 62.6277 138.982 62.5766 138.821 62.4232L138.606 62.2187L138.627 68.8845L138.659 75.5604L139.573 75.5502C140.626 75.5502 141.131 75.356 141.829 74.6914C142.56 73.9962 142.743 73.5566 142.743 72.4423C142.743 71.6857 142.7 71.3892 142.538 71.1132C142.173 70.4589 141.7 69.9784 141.131 69.6717C140.508 69.3343 140.271 68.9663 140.389 68.5164C140.465 68.1995 140.905 67.8417 141.217 67.8417C141.851 67.8417 143.248 68.8538 143.849 69.7637C144.838 71.2257 144.902 73.4237 144 74.8959C143.054 76.4601 141.421 77.3495 139.508 77.3495H138.606V80.0077V82.6658L138.821 82.4613C138.982 82.3079 139.175 82.2568 139.605 82.2568Z" fill="#292929"/>
<path d="M106.221 69.1605C105.984 68.9867 105.941 68.864 105.941 68.4653C105.941 67.9337 106.113 67.6986 106.607 67.5861C107.177 67.4532 107.65 67.8724 107.66 68.5267C107.66 68.864 107.607 68.9969 107.381 69.1605C107.22 69.2832 106.962 69.3752 106.801 69.3752C106.64 69.3752 106.382 69.2832 106.221 69.1605Z" fill="#292929"/>
<path d="M116.471 68.9662C116.332 68.8333 116.256 68.6288 116.256 68.3528C116.256 68.0768 116.332 67.8723 116.471 67.7394C116.686 67.5349 116.826 67.5349 124.852 67.5349C132.879 67.5349 133.019 67.5349 133.233 67.7394C133.373 67.8723 133.448 68.0768 133.448 68.3528C133.448 68.6288 133.373 68.8333 133.233 68.9662C133.019 69.1707 132.879 69.1707 124.852 69.1707C116.826 69.1707 116.686 69.1707 116.471 68.9662Z" fill="#292929"/>
<path d="M106.221 65.889C105.984 65.7152 105.941 65.5926 105.941 65.1938C105.941 64.6622 106.113 64.4271 106.607 64.3146C107.177 64.1817 107.65 64.6009 107.66 65.2552C107.66 65.5926 107.607 65.7255 107.381 65.889C107.22 66.0117 106.962 66.1037 106.801 66.1037C106.64 66.1037 106.382 66.0117 106.221 65.889Z" fill="#292929"/>
<path d="M116.471 65.6947C116.332 65.5618 116.256 65.3573 116.256 65.0813C116.256 64.8053 116.332 64.6008 116.471 64.4679C116.675 64.2737 116.826 64.2634 120.554 64.2634C124.283 64.2634 124.433 64.2737 124.637 64.4679C124.777 64.6008 124.852 64.8053 124.852 65.0813C124.852 65.3573 124.777 65.5618 124.637 65.6947C124.433 65.889 124.283 65.8992 120.554 65.8992C116.826 65.8992 116.675 65.889 116.471 65.6947Z" fill="#292929"/>
<path d="M106.221 62.6174C105.984 62.4436 105.941 62.321 105.941 61.9222C105.941 61.3906 106.113 61.1555 106.607 61.043C107.177 60.9101 107.65 61.3293 107.66 61.9836C107.66 62.321 107.607 62.4539 107.381 62.6174C107.22 62.7401 106.962 62.8321 106.801 62.8321C106.64 62.8321 106.382 62.7401 106.221 62.6174Z" fill="#292929"/>
<path d="M116.471 62.4232C116.332 62.2903 116.256 62.0859 116.256 61.8098C116.256 61.5338 116.332 61.3293 116.471 61.1964C116.686 60.9919 116.826 60.9919 123.133 60.9919C129.44 60.9919 129.58 60.9919 129.795 61.1964C129.935 61.3293 130.01 61.5338 130.01 61.8098C130.01 62.0859 129.935 62.2903 129.795 62.4232C129.58 62.6277 129.44 62.6277 123.133 62.6277C116.826 62.6277 116.686 62.6277 116.471 62.4232Z" fill="#292929"/>
<path d="M91.2145 118.34V129.5H92.7445V116.9H82.7545V129.5H84.2845V118.34H91.2145ZM96.8816 133.46V121.22H95.4416V133.46H96.8816ZM103.812 125.36C103.812 124.46 103.626 123.692 103.254 123.056C102.882 122.408 102.384 121.91 101.76 121.562C101.148 121.214 100.464 121.04 99.7076 121.04C99.0236 121.04 98.4176 121.214 97.8896 121.562C97.3736 121.91 96.9656 122.408 96.6656 123.056C96.3776 123.692 96.2336 124.46 96.2336 125.36C96.2336 126.248 96.3776 127.016 96.6656 127.664C96.9656 128.312 97.3736 128.81 97.8896 129.158C98.4176 129.506 99.0236 129.68 99.7076 129.68C100.464 129.68 101.148 129.506 101.76 129.158C102.384 128.81 102.882 128.312 103.254 127.664C103.626 127.016 103.812 126.248 103.812 125.36ZM102.354 125.36C102.354 125.996 102.222 126.536 101.958 126.98C101.706 127.424 101.364 127.76 100.932 127.988C100.512 128.216 100.044 128.33 99.5276 128.33C99.1076 128.33 98.6936 128.216 98.2856 127.988C97.8776 127.76 97.5416 127.424 97.2776 126.98C97.0136 126.536 96.8816 125.996 96.8816 125.36C96.8816 124.724 97.0136 124.184 97.2776 123.74C97.5416 123.296 97.8776 122.96 98.2856 122.732C98.6936 122.504 99.1076 122.39 99.5276 122.39C100.044 122.39 100.512 122.504 100.932 122.732C101.364 122.96 101.706 123.296 101.958 123.74C102.222 124.184 102.354 124.724 102.354 125.36ZM105.077 125.36C105.077 126.188 105.263 126.932 105.635 127.592C106.019 128.24 106.535 128.75 107.183 129.122C107.831 129.494 108.557 129.68 109.361 129.68C110.177 129.68 110.903 129.494 111.539 129.122C112.187 128.75 112.697 128.24 113.069 127.592C113.453 126.932 113.645 126.188 113.645 125.36C113.645 124.52 113.453 123.776 113.069 123.128C112.697 122.48 112.187 121.97 111.539 121.598C110.903 121.226 110.177 121.04 109.361 121.04C108.557 121.04 107.831 121.226 107.183 121.598C106.535 121.97 106.019 122.48 105.635 123.128C105.263 123.776 105.077 124.52 105.077 125.36ZM106.535 125.36C106.535 124.784 106.655 124.274 106.895 123.83C107.147 123.374 107.483 123.02 107.903 122.768C108.335 122.516 108.821 122.39 109.361 122.39C109.901 122.39 110.381 122.516 110.801 122.768C111.233 123.02 111.569 123.374 111.809 123.83C112.061 124.274 112.187 124.784 112.187 125.36C112.187 125.936 112.061 126.446 111.809 126.89C111.569 127.334 111.233 127.688 110.801 127.952C110.381 128.204 109.901 128.33 109.361 128.33C108.821 128.33 108.335 128.204 107.903 127.952C107.483 127.688 107.147 127.334 106.895 126.89C106.655 126.446 106.535 125.936 106.535 125.36ZM115.713 121.22V129.5H117.153V122.57H120.123V121.22H115.713ZM122.915 133.46V121.22H121.475V133.46H122.915ZM129.845 125.36C129.845 124.46 129.659 123.692 129.287 123.056C128.915 122.408 128.417 121.91 127.793 121.562C127.181 121.214 126.497 121.04 125.741 121.04C125.057 121.04 124.451 121.214 123.923 121.562C123.407 121.91 122.999 122.408 122.699 123.056C122.411 123.692 122.267 124.46 122.267 125.36C122.267 126.248 122.411 127.016 122.699 127.664C122.999 128.312 123.407 128.81 123.923 129.158C124.451 129.506 125.057 129.68 125.741 129.68C126.497 129.68 127.181 129.506 127.793 129.158C128.417 128.81 128.915 128.312 129.287 127.664C129.659 127.016 129.845 126.248 129.845 125.36ZM128.387 125.36C128.387 125.996 128.255 126.536 127.991 126.98C127.739 127.424 127.397 127.76 126.965 127.988C126.545 128.216 126.077 128.33 125.561 128.33C125.141 128.33 124.727 128.216 124.319 127.988C123.911 127.76 123.575 127.424 123.311 126.98C123.047 126.536 122.915 125.996 122.915 125.36C122.915 124.724 123.047 124.184 123.311 123.74C123.575 123.296 123.911 122.96 124.319 122.732C124.727 122.504 125.141 122.39 125.561 122.39C126.077 122.39 126.545 122.504 126.965 122.732C127.397 122.96 127.739 123.296 127.991 123.74C128.255 124.184 128.387 124.724 128.387 125.36ZM132.478 127.07C132.478 126.734 132.556 126.446 132.712 126.206C132.868 125.966 133.102 125.78 133.414 125.648C133.738 125.516 134.14 125.45 134.62 125.45C135.148 125.45 135.622 125.522 136.042 125.666C136.462 125.798 136.876 126.008 137.284 126.296V125.45C137.2 125.342 137.044 125.204 136.816 125.036C136.588 124.856 136.282 124.7 135.898 124.568C135.526 124.424 135.076 124.352 134.548 124.352C133.828 124.352 133.204 124.466 132.676 124.694C132.148 124.91 131.74 125.222 131.452 125.63C131.164 126.038 131.02 126.536 131.02 127.124C131.02 127.688 131.146 128.162 131.398 128.546C131.662 128.918 132.01 129.2 132.442 129.392C132.874 129.584 133.348 129.68 133.864 129.68C134.44 129.68 134.962 129.584 135.43 129.392C135.898 129.188 136.27 128.9 136.546 128.528C136.834 128.144 136.978 127.688 136.978 127.16L136.69 126.26C136.69 126.776 136.582 127.19 136.366 127.502C136.162 127.814 135.874 128.042 135.502 128.186C135.13 128.33 134.704 128.402 134.224 128.402C133.9 128.402 133.606 128.354 133.342 128.258C133.078 128.15 132.868 128 132.712 127.808C132.556 127.604 132.478 127.358 132.478 127.07ZM132.478 123.164C132.61 123.068 132.79 122.954 133.018 122.822C133.258 122.678 133.54 122.558 133.864 122.462C134.188 122.354 134.548 122.3 134.944 122.3C135.4 122.3 135.802 122.408 136.15 122.624C136.51 122.828 136.69 123.14 136.69 123.56V129.5H138.13V123.56C138.13 123.02 137.992 122.564 137.716 122.192C137.452 121.82 137.08 121.538 136.6 121.346C136.132 121.142 135.58 121.04 134.944 121.04C134.2 121.04 133.564 121.154 133.036 121.382C132.508 121.61 132.088 121.838 131.776 122.066L132.478 123.164ZM148.433 129.5H150.053L147.893 120.59L147.083 122.93L148.433 129.5ZM144.113 128.258L144.653 130.058L148.073 123.47L147.893 120.59L144.113 128.258ZM144.653 130.058L145.193 128.258L141.467 120.59L141.287 123.47L144.653 130.058ZM139.307 129.5H140.927L142.277 122.93L141.467 120.59L139.307 129.5ZM159.366 129.5H160.986L158.826 120.59L158.016 122.93L159.366 129.5ZM155.046 128.258L155.586 130.058L159.006 123.47L158.826 120.59L155.046 128.258ZM155.586 130.058L156.126 128.258L152.4 120.59L152.22 123.47L155.586 130.058ZM150.24 129.5H151.86L153.21 122.93L152.4 120.59L150.24 129.5ZM169.904 121.22V129.5H171.344V121.22H169.904ZM162.434 121.22V129.5H163.874V121.22H162.434ZM163.28 125.612H165.854C166.382 125.612 166.778 125.726 167.042 125.954C167.306 126.182 167.438 126.506 167.438 126.926C167.438 127.202 167.378 127.442 167.258 127.646C167.138 127.838 166.958 127.988 166.718 128.096C166.49 128.192 166.202 128.24 165.854 128.24H163.28V129.5H165.854C166.43 129.5 166.946 129.41 167.402 129.23C167.858 129.05 168.218 128.768 168.482 128.384C168.746 128 168.878 127.514 168.878 126.926C168.878 126.038 168.584 125.39 167.996 124.982C167.42 124.562 166.706 124.352 165.854 124.352H163.28V125.612Z" fill="#292929"/>
<rect x="0.5" y="0.5" width="253" height="187" rx="4.5" stroke="#EDEDED"/>
</svg>
