<svg width="254" height="188" viewBox="0 0 254 188" fill="none" xmlns="http://www.w3.org/2000/svg">
<rect x="0.5" y="0.5" width="253" height="187" rx="4.5" fill="white"/>
<g clip-path="url(#clip0_2_356)">
<path d="M137.814 46.4715C130.732 47.5434 124.933 48.4143 124.923 48.4238C124.904 48.4238 124.895 52.9219 124.895 58.4248V68.4258H138.149H151.404V56.4629V44.5L151.05 44.5096C150.849 44.5191 144.896 45.3996 137.814 46.4715ZM149.682 56.5586V66.6074H138.149H126.617V58.2525V49.9072L138.082 48.2229C144.38 47.2945 149.567 46.5289 149.615 46.5193C149.653 46.5193 149.682 51.027 149.682 56.5586Z" fill="#176EF0"/>
<path d="M112.673 50.1369L102.596 51.6299V60.1187V68.6172H112.979H123.363V58.6162V48.6152L123.057 48.6248C122.885 48.6344 118.205 49.3139 112.673 50.1369ZM121.545 58.7598V66.8945H112.932H104.318V60.0135V53.1324L105.4 52.9697C115.075 51.5246 121.066 50.6441 121.287 50.6346L121.545 50.625V58.7598Z" fill="#176EF0"/>
<path d="M102.596 78.2545V86.3701L112.865 87.8822C118.502 88.7149 123.181 89.3944 123.248 89.3848C123.335 89.3848 123.363 87.3942 123.363 79.7666V70.1485H112.979H102.596V78.2545ZM121.545 79.6709C121.545 86.0735 121.526 87.375 121.421 87.375C121.344 87.375 117.497 86.8199 112.874 86.1309C108.252 85.4514 104.433 84.8867 104.395 84.8867C104.347 84.8867 104.318 81.9774 104.318 78.4268V71.9668H112.932H121.545V79.6709Z" fill="#176EF0"/>
<path d="M124.895 79.8527V89.557L125.163 89.6145C125.679 89.7197 150.993 93.5 151.194 93.5H151.404V81.8242V70.1484H138.149H124.895V79.8527ZM149.682 81.7572V91.5572L148.275 91.3371C147.49 91.2223 142.303 90.4471 136.743 89.6145L126.617 88.0928V80.0346V71.9668H138.149H149.682V81.7572Z" fill="#176EF0"/>
</g>
<path d="M65.1535 113.2C65.1535 112.252 65.3575 111.406 65.7655 110.662C66.1855 109.918 66.7555 109.33 67.4755 108.898C68.1955 108.466 69.0115 108.25 69.9235 108.25C70.8475 108.25 71.6635 108.466 72.3715 108.898C73.0915 109.33 73.6555 109.918 74.0635 110.662C74.4835 111.406 74.6935 112.252 74.6935 113.2C74.6935 114.148 74.4835 114.994 74.0635 115.738C73.6555 116.482 73.0915 117.07 72.3715 117.502C71.6635 117.934 70.8475 118.15 69.9235 118.15C69.0115 118.15 68.1955 117.934 67.4755 117.502C66.7555 117.07 66.1855 116.482 65.7655 115.738C65.3575 114.994 65.1535 114.148 65.1535 113.2ZM63.5335 113.2C63.5335 114.112 63.6895 114.964 64.0015 115.756C64.3255 116.548 64.7755 117.238 65.3515 117.826C65.9275 118.402 66.6055 118.858 67.3855 119.194C68.1655 119.518 69.0115 119.68 69.9235 119.68C70.8475 119.68 71.6935 119.518 72.4615 119.194C73.2415 118.858 73.9195 118.402 74.4955 117.826C75.0715 117.238 75.5155 116.548 75.8275 115.756C76.1515 114.964 76.3135 114.112 76.3135 113.2C76.3135 112.276 76.1515 111.424 75.8275 110.644C75.5155 109.852 75.0715 109.168 74.4955 108.592C73.9195 108.004 73.2415 107.548 72.4615 107.224C71.6935 106.888 70.8475 106.72 69.9235 106.72C69.0115 106.72 68.1655 106.888 67.3855 107.224C66.6055 107.548 65.9275 108.004 65.3515 108.592C64.7755 109.168 64.3255 109.852 64.0015 110.644C63.6895 111.424 63.5335 112.276 63.5335 113.2ZM85.1342 111.22H78.3842V119.5H79.8242V112.57H83.6942V119.5H85.1342V111.22ZM88.0392 115.72H95.1132C95.1252 115.648 95.1312 115.576 95.1312 115.504C95.1312 115.432 95.1312 115.36 95.1312 115.288C95.1312 114.412 94.9692 113.662 94.6452 113.038C94.3212 112.402 93.8652 111.91 93.2772 111.562C92.6892 111.214 92.0052 111.04 91.2252 111.04C90.5172 111.04 89.8752 111.184 89.2992 111.472C88.7352 111.76 88.2732 112.162 87.9132 112.678C87.5532 113.194 87.3132 113.794 87.1932 114.478C87.1692 114.622 87.1512 114.766 87.1392 114.91C87.1272 115.054 87.1212 115.204 87.1212 115.36C87.1212 116.188 87.2892 116.932 87.6252 117.592C87.9732 118.24 88.4412 118.75 89.0292 119.122C89.6292 119.494 90.3012 119.68 91.0452 119.68C91.7652 119.68 92.3652 119.596 92.8452 119.428C93.3252 119.248 93.7332 119.002 94.0692 118.69C94.4052 118.366 94.7112 117.994 94.9872 117.574L93.8172 116.836C93.6372 117.136 93.4212 117.4 93.1692 117.628C92.9172 117.844 92.6292 118.018 92.3052 118.15C91.9932 118.27 91.6332 118.33 91.2252 118.33C90.6852 118.33 90.2172 118.216 89.8212 117.988C89.4252 117.76 89.1192 117.424 88.9032 116.98C88.6872 116.536 88.5792 115.996 88.5792 115.36L88.6152 114.82C88.6152 114.304 88.7292 113.86 88.9572 113.488C89.1972 113.104 89.5152 112.81 89.9112 112.606C90.3072 112.402 90.7452 112.3 91.2252 112.3C91.7052 112.3 92.1072 112.396 92.4312 112.588C92.7672 112.768 93.0252 113.026 93.2052 113.362C93.3972 113.686 93.5172 114.064 93.5652 114.496H88.0392V115.72ZM98.4549 123.46V111.22H97.0149V123.46H98.4549ZM105.385 115.36C105.385 114.46 105.199 113.692 104.827 113.056C104.455 112.408 103.957 111.91 103.333 111.562C102.721 111.214 102.037 111.04 101.281 111.04C100.597 111.04 99.9909 111.214 99.4629 111.562C98.9469 111.91 98.5389 112.408 98.2389 113.056C97.9509 113.692 97.8069 114.46 97.8069 115.36C97.8069 116.248 97.9509 117.016 98.2389 117.664C98.5389 118.312 98.9469 118.81 99.4629 119.158C99.9909 119.506 100.597 119.68 101.281 119.68C102.037 119.68 102.721 119.506 103.333 119.158C103.957 118.81 104.455 118.312 104.827 117.664C105.199 117.016 105.385 116.248 105.385 115.36ZM103.927 115.36C103.927 115.996 103.795 116.536 103.531 116.98C103.279 117.424 102.937 117.76 102.505 117.988C102.085 118.216 101.617 118.33 101.101 118.33C100.681 118.33 100.267 118.216 99.8589 117.988C99.4509 117.76 99.1149 117.424 98.8509 116.98C98.5869 116.536 98.4549 115.996 98.4549 115.36C98.4549 114.724 98.5869 114.184 98.8509 113.74C99.1149 113.296 99.4509 112.96 99.8589 112.732C100.267 112.504 100.681 112.39 101.101 112.39C101.617 112.39 102.085 112.504 102.505 112.732C102.937 112.96 103.279 113.296 103.531 113.74C103.795 114.184 103.927 114.724 103.927 115.36ZM108.019 117.07C108.019 116.734 108.097 116.446 108.253 116.206C108.409 115.966 108.643 115.78 108.955 115.648C109.279 115.516 109.681 115.45 110.161 115.45C110.689 115.45 111.163 115.522 111.583 115.666C112.003 115.798 112.417 116.008 112.825 116.296V115.45C112.741 115.342 112.585 115.204 112.357 115.036C112.129 114.856 111.823 114.7 111.439 114.568C111.067 114.424 110.617 114.352 110.089 114.352C109.369 114.352 108.745 114.466 108.217 114.694C107.689 114.91 107.281 115.222 106.993 115.63C106.705 116.038 106.561 116.536 106.561 117.124C106.561 117.688 106.687 118.162 106.939 118.546C107.203 118.918 107.551 119.2 107.983 119.392C108.415 119.584 108.889 119.68 109.405 119.68C109.981 119.68 110.503 119.584 110.971 119.392C111.439 119.188 111.811 118.9 112.087 118.528C112.375 118.144 112.519 117.688 112.519 117.16L112.231 116.26C112.231 116.776 112.123 117.19 111.907 117.502C111.703 117.814 111.415 118.042 111.043 118.186C110.671 118.33 110.245 118.402 109.765 118.402C109.441 118.402 109.147 118.354 108.883 118.258C108.619 118.15 108.409 118 108.253 117.808C108.097 117.604 108.019 117.358 108.019 117.07ZM108.019 113.164C108.151 113.068 108.331 112.954 108.559 112.822C108.799 112.678 109.081 112.558 109.405 112.462C109.729 112.354 110.089 112.3 110.485 112.3C110.941 112.3 111.343 112.408 111.691 112.624C112.051 112.828 112.231 113.14 112.231 113.56V119.5H113.671V113.56C113.671 113.02 113.533 112.564 113.257 112.192C112.993 111.82 112.621 111.538 112.141 111.346C111.673 111.142 111.121 111.04 110.485 111.04C109.741 111.04 109.105 111.154 108.577 111.382C108.049 111.61 107.629 111.838 107.317 112.066L108.019 113.164ZM122.857 118.15V111.22H121.417V118.15H117.547V111.22H116.107V119.5H123.037V121.12H124.297V118.15H122.857ZM133.215 112.66L133.305 110.59L126.465 118.06L126.375 120.13L133.215 112.66ZM127.815 111.22H126.375V120.13L127.815 118.15V111.22ZM133.305 110.59L131.865 112.57V119.5H133.305V110.59ZM135.373 115.36C135.373 116.188 135.559 116.932 135.931 117.592C136.315 118.24 136.831 118.75 137.479 119.122C138.127 119.494 138.853 119.68 139.657 119.68C140.473 119.68 141.199 119.494 141.835 119.122C142.483 118.75 142.993 118.24 143.365 117.592C143.749 116.932 143.941 116.188 143.941 115.36C143.941 114.52 143.749 113.776 143.365 113.128C142.993 112.48 142.483 111.97 141.835 111.598C141.199 111.226 140.473 111.04 139.657 111.04C138.853 111.04 138.127 111.226 137.479 111.598C136.831 111.97 136.315 112.48 135.931 113.128C135.559 113.776 135.373 114.52 135.373 115.36ZM136.831 115.36C136.831 114.784 136.951 114.274 137.191 113.83C137.443 113.374 137.779 113.02 138.199 112.768C138.631 112.516 139.117 112.39 139.657 112.39C140.197 112.39 140.677 112.516 141.097 112.768C141.529 113.02 141.865 113.374 142.105 113.83C142.357 114.274 142.483 114.784 142.483 115.36C142.483 115.936 142.357 116.446 142.105 116.89C141.865 117.334 141.529 117.688 141.097 117.952C140.677 118.204 140.197 118.33 139.657 118.33C139.117 118.33 138.631 118.204 138.199 117.952C137.779 117.688 137.443 117.334 137.191 116.89C136.951 116.446 136.831 115.936 136.831 115.36ZM146.765 115.81H152.885V114.46H146.765V115.81ZM151.949 111.22V119.5H153.389V111.22H151.949ZM145.919 111.22V119.5H147.359V111.22H145.919ZM156.943 115.81H163.063V114.46H156.943V115.81ZM162.127 111.22V119.5H163.567V111.22H162.127ZM156.097 111.22V119.5H157.537V111.22H156.097ZM173.745 111.22V119.5H175.185V111.22H173.745ZM166.275 111.22V119.5H167.715V111.22H166.275ZM167.121 115.612H169.695C170.223 115.612 170.619 115.726 170.883 115.954C171.147 116.182 171.279 116.506 171.279 116.926C171.279 117.202 171.219 117.442 171.099 117.646C170.979 117.838 170.799 117.988 170.559 118.096C170.331 118.192 170.043 118.24 169.695 118.24H167.121V119.5H169.695C170.271 119.5 170.787 119.41 171.243 119.23C171.699 119.05 172.059 118.768 172.323 118.384C172.587 118 172.719 117.514 172.719 116.926C172.719 116.038 172.425 115.39 171.837 114.982C171.261 114.562 170.547 114.352 169.695 114.352H167.121V115.612ZM178.074 115.72H185.148C185.16 115.648 185.166 115.576 185.166 115.504C185.166 115.432 185.166 115.36 185.166 115.288C185.166 114.412 185.004 113.662 184.68 113.038C184.356 112.402 183.9 111.91 183.312 111.562C182.724 111.214 182.04 111.04 181.26 111.04C180.552 111.04 179.91 111.184 179.334 111.472C178.77 111.76 178.308 112.162 177.948 112.678C177.588 113.194 177.348 113.794 177.228 114.478C177.204 114.622 177.186 114.766 177.174 114.91C177.162 115.054 177.156 115.204 177.156 115.36C177.156 116.188 177.324 116.932 177.66 117.592C178.008 118.24 178.476 118.75 179.064 119.122C179.664 119.494 180.336 119.68 181.08 119.68C181.8 119.68 182.4 119.596 182.88 119.428C183.36 119.248 183.768 119.002 184.104 118.69C184.44 118.366 184.746 117.994 185.022 117.574L183.852 116.836C183.672 117.136 183.456 117.4 183.204 117.628C182.952 117.844 182.664 118.018 182.34 118.15C182.028 118.27 181.668 118.33 181.26 118.33C180.72 118.33 180.252 118.216 179.856 117.988C179.46 117.76 179.154 117.424 178.938 116.98C178.722 116.536 178.614 115.996 178.614 115.36L178.65 114.82C178.65 114.304 178.764 113.86 178.992 113.488C179.232 113.104 179.55 112.81 179.946 112.606C180.342 112.402 180.78 112.3 181.26 112.3C181.74 112.3 182.142 112.396 182.466 112.588C182.802 112.768 183.06 113.026 183.24 113.362C183.432 113.686 183.552 114.064 183.6 114.496H178.074V115.72ZM97.208 135.36C97.208 134.784 97.328 134.274 97.568 133.83C97.82 133.374 98.156 133.02 98.576 132.768C99.008 132.516 99.494 132.39 100.034 132.39C100.478 132.39 100.892 132.462 101.276 132.606C101.672 132.738 102.014 132.918 102.302 133.146C102.59 133.374 102.794 133.626 102.914 133.902V132.102C102.626 131.766 102.212 131.508 101.672 131.328C101.144 131.136 100.598 131.04 100.034 131.04C99.23 131.04 98.504 131.226 97.856 131.598C97.208 131.97 96.692 132.48 96.308 133.128C95.936 133.776 95.75 134.52 95.75 135.36C95.75 136.188 95.936 136.932 96.308 137.592C96.692 138.24 97.208 138.75 97.856 139.122C98.504 139.494 99.23 139.68 100.034 139.68C100.598 139.68 101.144 139.59 101.672 139.41C102.212 139.218 102.626 138.954 102.914 138.618V136.818C102.794 137.082 102.59 137.334 102.302 137.574C102.014 137.802 101.672 137.988 101.276 138.132C100.892 138.264 100.478 138.33 100.034 138.33C99.494 138.33 99.008 138.204 98.576 137.952C98.156 137.688 97.82 137.334 97.568 136.89C97.328 136.446 97.208 135.936 97.208 135.36ZM112.086 132.66L112.176 130.59L105.336 138.06L105.246 140.13L112.086 132.66ZM106.686 131.22H105.246V140.13L106.686 138.15V131.22ZM112.176 130.59L110.736 132.57V139.5H112.176V130.59ZM115.612 135.36C115.612 134.784 115.732 134.274 115.972 133.83C116.224 133.374 116.56 133.02 116.98 132.768C117.412 132.516 117.898 132.39 118.438 132.39C118.882 132.39 119.296 132.462 119.68 132.606C120.076 132.738 120.418 132.918 120.706 133.146C120.994 133.374 121.198 133.626 121.318 133.902V132.102C121.03 131.766 120.616 131.508 120.076 131.328C119.548 131.136 119.002 131.04 118.438 131.04C117.634 131.04 116.908 131.226 116.26 131.598C115.612 131.97 115.096 132.48 114.712 133.128C114.34 133.776 114.154 134.52 114.154 135.36C114.154 136.188 114.34 136.932 114.712 137.592C115.096 138.24 115.612 138.75 116.26 139.122C116.908 139.494 117.634 139.68 118.438 139.68C119.002 139.68 119.548 139.59 120.076 139.41C120.616 139.218 121.03 138.954 121.318 138.618V136.818C121.198 137.082 120.994 137.334 120.706 137.574C120.418 137.802 120.076 137.988 119.68 138.132C119.296 138.264 118.882 138.33 118.438 138.33C117.898 138.33 117.412 138.204 116.98 137.952C116.56 137.688 116.224 137.334 115.972 136.89C115.732 136.446 115.612 135.936 115.612 135.36ZM122.3 131.22V132.57H127.16V131.22H122.3ZM124.01 131.58V139.5H125.45V131.58H124.01ZM128.539 135.72H135.613C135.625 135.648 135.631 135.576 135.631 135.504C135.631 135.432 135.631 135.36 135.631 135.288C135.631 134.412 135.469 133.662 135.145 133.038C134.821 132.402 134.365 131.91 133.777 131.562C133.189 131.214 132.505 131.04 131.725 131.04C131.017 131.04 130.375 131.184 129.799 131.472C129.235 131.76 128.773 132.162 128.413 132.678C128.053 133.194 127.813 133.794 127.693 134.478C127.669 134.622 127.651 134.766 127.639 134.91C127.627 135.054 127.621 135.204 127.621 135.36C127.621 136.188 127.789 136.932 128.125 137.592C128.473 138.24 128.941 138.75 129.529 139.122C130.129 139.494 130.801 139.68 131.545 139.68C132.265 139.68 132.865 139.596 133.345 139.428C133.825 139.248 134.233 139.002 134.569 138.69C134.905 138.366 135.211 137.994 135.487 137.574L134.317 136.836C134.137 137.136 133.921 137.4 133.669 137.628C133.417 137.844 133.129 138.018 132.805 138.15C132.493 138.27 132.133 138.33 131.725 138.33C131.185 138.33 130.717 138.216 130.321 137.988C129.925 137.76 129.619 137.424 129.403 136.98C129.187 136.536 129.079 135.996 129.079 135.36L129.115 134.82C129.115 134.304 129.229 133.86 129.457 133.488C129.697 133.104 130.015 132.81 130.411 132.606C130.807 132.402 131.245 132.3 131.725 132.3C132.205 132.3 132.607 132.396 132.931 132.588C133.267 132.768 133.525 133.026 133.705 133.362C133.897 133.686 134.017 134.064 134.065 134.496H128.539V135.72ZM145.471 139.5H147.091L144.931 130.59L144.121 132.93L145.471 139.5ZM141.151 138.258L141.691 140.058L145.111 133.47L144.931 130.59L141.151 138.258ZM141.691 140.058L142.231 138.258L138.505 130.59L138.325 133.47L141.691 140.058ZM136.345 139.5H137.965L139.315 132.93L138.505 130.59L136.345 139.5ZM156.008 131.22V139.5H157.448V131.22H156.008ZM148.538 131.22V139.5H149.978V131.22H148.538ZM149.384 135.612H151.958C152.486 135.612 152.882 135.726 153.146 135.954C153.41 136.182 153.542 136.506 153.542 136.926C153.542 137.202 153.482 137.442 153.362 137.646C153.242 137.838 153.062 137.988 152.822 138.096C152.594 138.192 152.306 138.24 151.958 138.24H149.384V139.5H151.958C152.534 139.5 153.05 139.41 153.506 139.23C153.962 139.05 154.322 138.768 154.586 138.384C154.85 138 154.982 137.514 154.982 136.926C154.982 136.038 154.688 135.39 154.1 134.982C153.524 134.562 152.81 134.352 151.958 134.352H149.384V135.612Z" fill="#292929"/>
<rect x="0.5" y="0.5" width="253" height="187" rx="4.5" stroke="#176EF0"/>
<defs>
<clipPath id="clip0_2_356">
<rect width="49" height="49" fill="white" transform="translate(102.5 44.5)"/>
</clipPath>
</defs>
</svg>
