<svg width="254" height="188" viewBox="0 0 254 188" fill="none" xmlns="http://www.w3.org/2000/svg">
<rect x="0.5" y="0.5" width="253" height="187" rx="4.5" fill="white"/>
<g clip-path="url(#clip0_2_380)">
<path d="M108.664 57.8975C107.314 58.3281 106.309 59.3426 105.888 60.7112C105.783 61.0653 105.754 62.3381 105.754 67.5731V73.9948L105.046 74.0522C104.185 74.1192 103.62 74.3489 103.141 74.8465C102.452 75.5643 102.491 74.7125 102.519 87.3262L102.548 98.667L102.797 99.0498C103.141 99.5666 103.419 99.8155 103.936 100.045C104.366 100.237 104.462 100.246 120.349 100.237C132.762 100.237 136.37 100.217 136.484 100.122C136.896 99.8059 136.934 99.1742 136.618 98.1119C136.274 96.9731 135.183 95.8725 134.015 95.4992C133.709 95.394 133.01 95.327 131.958 95.2983L130.35 95.2408V92.8674V90.4844H135.183H140.006L140.035 94.4848L140.064 98.4756L140.341 98.9828C140.647 99.5283 141.097 99.9207 141.633 100.112C141.892 100.208 142.935 100.237 145.806 100.237C149.462 100.246 149.653 100.237 150.065 100.045C150.581 99.8155 150.859 99.5666 151.204 99.0498L151.452 98.667L151.481 89.8336C151.5 83.6416 151.472 80.8758 151.395 80.6078C151.261 80.091 150.428 79.2489 149.912 79.1053C149.711 79.0479 149.251 79 148.897 79H148.246V70.0709C148.246 62.7018 148.218 61.0748 148.112 60.7112C147.691 59.3235 146.677 58.309 145.289 57.8879C144.667 57.6965 109.266 57.7061 108.664 57.8975ZM145.136 59.7063C145.71 59.9742 146.064 60.3379 146.323 60.9121C146.514 61.3332 146.524 61.4959 146.524 70.1666V79H144.198C141.882 79 141.872 79 141.365 79.2489C140.485 79.6891 140.016 80.5504 140.016 81.718V82.2539H131.068H122.119V79.1532C122.119 77.0955 122.081 75.9567 122.014 75.7461L121.899 75.4399L125.976 71.3533C128.216 69.1139 130.101 67.152 130.149 67.0084C130.369 66.4151 129.766 65.7739 129.134 65.927C128.953 65.9748 127.507 67.353 124.751 70.1092L120.626 74.2149L120.119 74.1192C119.803 74.0617 117.248 74.0235 113.544 74.0235H107.477V67.6783C107.477 61.5151 107.486 61.3332 107.678 60.9121C107.936 60.3379 108.29 59.9742 108.864 59.7063L109.343 59.4766H127H144.657L145.136 59.7063ZM120.148 76.0237L120.397 76.2533V85.7662V95.2696H112.31H104.223V85.7662V76.2533L104.443 76.0619C104.558 75.9567 104.721 75.8418 104.797 75.8131C104.874 75.7844 108.309 75.7653 112.425 75.7748L119.899 75.794L120.148 76.0237ZM149.557 80.9332L149.778 81.1342V88.2067V95.2696H145.758H141.739V88.3311C141.739 82.3879 141.758 81.3447 141.882 81.1055C141.959 80.9619 142.073 80.8184 142.14 80.7897C142.207 80.761 143.854 80.7323 145.796 80.7323C149.299 80.7227 149.337 80.7227 149.557 80.9332ZM140.016 86.3692V88.7617H131.068H122.119V86.3692V83.9766H131.068H140.016V86.3692ZM123.651 92.877V95.2696H122.885H122.119V92.877V90.4844H122.885H123.651V92.877ZM128.627 92.877V95.2696H127H125.373V92.877V90.4844H127H128.627V92.877ZM120.397 97.5186C120.397 97.9588 120.358 98.0928 120.157 98.2842L119.928 98.5235H112.3H104.663L104.443 98.3129C104.261 98.1406 104.223 98.0067 104.223 97.5473V96.9922H112.31H120.397V97.5186ZM133.374 97.1358C133.9 97.2889 134.513 97.7674 134.781 98.2268L134.953 98.5235H128.474C122.617 98.5235 122.005 98.5139 122.062 98.3703C122.091 98.2842 122.119 97.9397 122.119 97.6047V96.9922H127.507C131.986 96.9922 132.982 97.0209 133.374 97.1358ZM149.778 97.5377C149.778 97.9588 149.73 98.1311 149.567 98.3033L149.366 98.5235H145.815C143.174 98.5139 142.227 98.4852 142.112 98.399C141.863 98.2076 141.739 97.8918 141.739 97.4324V96.9922H145.758H149.778V97.5377Z" fill="#292929"/>
<path d="M124.761 61.2566C124.435 61.5916 124.426 62.051 124.742 62.4146L124.971 62.6826H127H129.029L129.259 62.4146C129.575 62.051 129.565 61.5916 129.24 61.2566L128.981 61.0078H127H125.019L124.761 61.2566Z" fill="#292929"/>
<path d="M133.843 66.0704C133.69 66.1661 131.737 68.0706 129.517 70.3005C126.388 73.4587 125.469 74.4253 125.421 74.6646C125.297 75.2675 125.852 75.813 126.445 75.679C126.732 75.612 135.106 67.2667 135.183 66.97C135.259 66.6446 134.991 66.0991 134.704 65.9843C134.34 65.8503 134.168 65.8694 133.843 66.0704Z" fill="#292929"/>
<path d="M109.324 85.728C107.505 87.5368 107.381 87.6899 107.381 88.0153C107.381 88.4938 107.457 88.6469 107.773 88.8096C108.376 89.1254 108.434 89.0872 110.472 87.0583L112.367 85.1729L112.3 84.5987C112.271 84.2829 112.195 83.967 112.147 83.9001C112.089 83.8426 111.869 83.7852 111.659 83.7852C111.276 83.7852 111.219 83.8331 109.324 85.728Z" fill="#292929"/>
<path d="M114.204 85.728C112.319 87.6133 112.262 87.6803 112.262 88.0536C112.262 88.6565 112.769 89.068 113.343 88.9149C113.458 88.8862 114.425 87.9866 115.496 86.9147C117.535 84.8666 117.602 84.7614 117.315 84.235C117.143 83.9096 116.932 83.7948 116.53 83.7852C116.157 83.7852 116.08 83.8522 114.204 85.728Z" fill="#292929"/>
<path d="M145.213 87.3454C144.055 88.4938 143.834 88.7714 143.787 89.0681C143.729 89.3743 143.767 89.4604 144.016 89.7188C144.342 90.0347 144.657 90.0825 145.069 89.872C145.213 89.7954 145.873 89.1733 146.552 88.4938C147.691 87.3263 147.768 87.2306 147.768 86.8669C147.768 86.3597 147.404 85.9864 146.926 85.9864C146.619 85.9864 146.457 86.1108 145.213 87.3454Z" fill="#292929"/>
<path d="M126.512 85.6322C126.091 85.9576 126.053 86.6466 126.436 87.0007C126.723 87.2591 127.307 87.24 127.613 86.9529C128.158 86.4361 127.766 85.5077 127.01 85.5077C126.818 85.5077 126.598 85.5652 126.512 85.6322Z" fill="#292929"/>
</g>
<path d="M95.7647 116.9H94.0547L90.2387 125.288L91.1927 125.36L87.4847 116.9H85.5947L89.7527 125.774L88.1327 129.5H89.8427L95.7647 116.9ZM96.3291 125.36C96.3291 124.784 96.4491 124.274 96.6891 123.83C96.9411 123.374 97.2771 123.02 97.6971 122.768C98.1291 122.516 98.6151 122.39 99.1551 122.39C99.5991 122.39 100.013 122.462 100.397 122.606C100.793 122.738 101.135 122.918 101.423 123.146C101.711 123.374 101.915 123.626 102.035 123.902V122.102C101.747 121.766 101.333 121.508 100.793 121.328C100.265 121.136 99.7191 121.04 99.1551 121.04C98.3511 121.04 97.6251 121.226 96.9771 121.598C96.3291 121.97 95.8131 122.48 95.4291 123.128C95.0571 123.776 94.8711 124.52 94.8711 125.36C94.8711 126.188 95.0571 126.932 95.4291 127.592C95.8131 128.24 96.3291 128.75 96.9771 129.122C97.6251 129.494 98.3511 129.68 99.1551 129.68C99.7191 129.68 100.265 129.59 100.793 129.41C101.333 129.218 101.747 128.954 102.035 128.618V126.818C101.915 127.082 101.711 127.334 101.423 127.574C101.135 127.802 100.793 127.988 100.397 128.132C100.013 128.264 99.5991 128.33 99.1551 128.33C98.6151 128.33 98.1291 128.204 97.6971 127.952C97.2771 127.688 96.9411 127.334 96.6891 126.89C96.4491 126.446 96.3291 125.936 96.3291 125.36ZM103.017 121.22V122.57H107.877V121.22H103.017ZM104.727 121.58V129.5H106.167V121.58H104.727ZM110.672 133.46V121.22H109.232V133.46H110.672ZM117.602 125.36C117.602 124.46 117.416 123.692 117.044 123.056C116.672 122.408 116.174 121.91 115.55 121.562C114.938 121.214 114.254 121.04 113.498 121.04C112.814 121.04 112.208 121.214 111.68 121.562C111.164 121.91 110.756 122.408 110.456 123.056C110.168 123.692 110.024 124.46 110.024 125.36C110.024 126.248 110.168 127.016 110.456 127.664C110.756 128.312 111.164 128.81 111.68 129.158C112.208 129.506 112.814 129.68 113.498 129.68C114.254 129.68 114.938 129.506 115.55 129.158C116.174 128.81 116.672 128.312 117.044 127.664C117.416 127.016 117.602 126.248 117.602 125.36ZM116.144 125.36C116.144 125.996 116.012 126.536 115.748 126.98C115.496 127.424 115.154 127.76 114.722 127.988C114.302 128.216 113.834 128.33 113.318 128.33C112.898 128.33 112.484 128.216 112.076 127.988C111.668 127.76 111.332 127.424 111.068 126.98C110.804 126.536 110.672 125.996 110.672 125.36C110.672 124.724 110.804 124.184 111.068 123.74C111.332 123.296 111.668 122.96 112.076 122.732C112.484 122.504 112.898 122.39 113.318 122.39C113.834 122.39 114.302 122.504 114.722 122.732C115.154 122.96 115.496 123.296 115.748 123.74C116.012 124.184 116.144 124.724 116.144 125.36ZM118.867 125.36C118.867 126.188 119.053 126.932 119.425 127.592C119.809 128.24 120.325 128.75 120.973 129.122C121.621 129.494 122.347 129.68 123.151 129.68C123.967 129.68 124.693 129.494 125.329 129.122C125.977 128.75 126.487 128.24 126.859 127.592C127.243 126.932 127.435 126.188 127.435 125.36C127.435 124.52 127.243 123.776 126.859 123.128C126.487 122.48 125.977 121.97 125.329 121.598C124.693 121.226 123.967 121.04 123.151 121.04C122.347 121.04 121.621 121.226 120.973 121.598C120.325 121.97 119.809 122.48 119.425 123.128C119.053 123.776 118.867 124.52 118.867 125.36ZM120.325 125.36C120.325 124.784 120.445 124.274 120.685 123.83C120.937 123.374 121.273 123.02 121.693 122.768C122.125 122.516 122.611 122.39 123.151 122.39C123.691 122.39 124.171 122.516 124.591 122.768C125.023 123.02 125.359 123.374 125.599 123.83C125.851 124.274 125.977 124.784 125.977 125.36C125.977 125.936 125.851 126.446 125.599 126.89C125.359 127.334 125.023 127.688 124.591 127.952C124.171 128.204 123.691 128.33 123.151 128.33C122.611 128.33 122.125 128.204 121.693 127.952C121.273 127.688 120.937 127.334 120.685 126.89C120.445 126.446 120.325 125.936 120.325 125.36ZM136.343 122.66L136.433 120.59L129.593 128.06L129.503 130.13L136.343 122.66ZM130.943 121.22H129.503V130.13L130.943 128.15V121.22ZM136.433 120.59L134.993 122.57V129.5H136.433V120.59ZM130.169 116.99C130.169 117.398 130.271 117.8 130.475 118.196C130.691 118.58 131.009 118.898 131.429 119.15C131.861 119.39 132.389 119.51 133.013 119.51C133.649 119.51 134.177 119.39 134.597 119.15C135.017 118.898 135.329 118.58 135.533 118.196C135.749 117.8 135.857 117.398 135.857 116.99H134.579C134.579 117.146 134.537 117.332 134.453 117.548C134.369 117.752 134.213 117.938 133.985 118.106C133.757 118.262 133.433 118.34 133.013 118.34C132.593 118.34 132.269 118.262 132.041 118.106C131.813 117.938 131.657 117.752 131.573 117.548C131.489 117.332 131.447 117.146 131.447 116.99H130.169ZM139.87 125.36C139.87 124.784 139.99 124.274 140.23 123.83C140.482 123.374 140.818 123.02 141.238 122.768C141.67 122.516 142.156 122.39 142.696 122.39C143.14 122.39 143.554 122.462 143.938 122.606C144.334 122.738 144.676 122.918 144.964 123.146C145.252 123.374 145.456 123.626 145.576 123.902V122.102C145.288 121.766 144.874 121.508 144.334 121.328C143.806 121.136 143.26 121.04 142.696 121.04C141.892 121.04 141.166 121.226 140.518 121.598C139.87 121.97 139.354 122.48 138.97 123.128C138.598 123.776 138.412 124.52 138.412 125.36C138.412 126.188 138.598 126.932 138.97 127.592C139.354 128.24 139.87 128.75 140.518 129.122C141.166 129.494 141.892 129.68 142.696 129.68C143.26 129.68 143.806 129.59 144.334 129.41C144.874 129.218 145.288 128.954 145.576 128.618V126.818C145.456 127.082 145.252 127.334 144.964 127.574C144.676 127.802 144.334 127.988 143.938 128.132C143.554 128.264 143.14 128.33 142.696 128.33C142.156 128.33 141.67 128.204 141.238 127.952C140.818 127.688 140.482 127.334 140.23 126.89C139.99 126.446 139.87 125.936 139.87 125.36ZM146.558 121.22V122.57H151.418V121.22H146.558ZM148.268 121.58V129.5H149.708V121.58H148.268ZM153.709 125.18V125.936H156.103C156.379 125.936 156.613 125.966 156.805 126.026C157.009 126.074 157.171 126.152 157.291 126.26C157.423 126.368 157.519 126.488 157.579 126.62C157.651 126.752 157.687 126.902 157.687 127.07C157.687 127.394 157.555 127.67 157.291 127.898C157.039 128.126 156.643 128.24 156.103 128.24H153.709V129.5H156.463C157.411 129.5 158.089 129.284 158.497 128.852C158.917 128.408 159.127 127.874 159.127 127.25C159.127 126.71 158.995 126.29 158.731 125.99C158.467 125.69 158.107 125.48 157.651 125.36C157.195 125.24 156.679 125.18 156.103 125.18H153.709ZM153.709 125.54H155.923C156.439 125.54 156.907 125.468 157.327 125.324C157.759 125.168 158.107 124.94 158.371 124.64C158.635 124.328 158.767 123.938 158.767 123.47C158.767 122.93 158.635 122.498 158.371 122.174C158.107 121.838 157.759 121.598 157.327 121.454C156.907 121.298 156.439 121.22 155.923 121.22H153.709V122.48H155.923C156.355 122.48 156.697 122.582 156.949 122.786C157.201 122.978 157.327 123.236 157.327 123.56C157.327 123.716 157.291 123.866 157.219 124.01C157.159 124.142 157.069 124.262 156.949 124.37C156.829 124.478 156.679 124.562 156.499 124.622C156.331 124.67 156.139 124.694 155.923 124.694H153.709V125.54ZM152.863 121.22V129.5H154.303V121.22H152.863ZM161.667 127.07C161.667 126.734 161.745 126.446 161.901 126.206C162.057 125.966 162.291 125.78 162.603 125.648C162.927 125.516 163.329 125.45 163.809 125.45C164.337 125.45 164.811 125.522 165.231 125.666C165.651 125.798 166.065 126.008 166.473 126.296V125.45C166.389 125.342 166.233 125.204 166.005 125.036C165.777 124.856 165.471 124.7 165.087 124.568C164.715 124.424 164.265 124.352 163.737 124.352C163.017 124.352 162.393 124.466 161.865 124.694C161.337 124.91 160.929 125.222 160.641 125.63C160.353 126.038 160.209 126.536 160.209 127.124C160.209 127.688 160.335 128.162 160.587 128.546C160.851 128.918 161.199 129.2 161.631 129.392C162.063 129.584 162.537 129.68 163.053 129.68C163.629 129.68 164.151 129.584 164.619 129.392C165.087 129.188 165.459 128.9 165.735 128.528C166.023 128.144 166.167 127.688 166.167 127.16L165.879 126.26C165.879 126.776 165.771 127.19 165.555 127.502C165.351 127.814 165.063 128.042 164.691 128.186C164.319 128.33 163.893 128.402 163.413 128.402C163.089 128.402 162.795 128.354 162.531 128.258C162.267 128.15 162.057 128 161.901 127.808C161.745 127.604 161.667 127.358 161.667 127.07ZM161.667 123.164C161.799 123.068 161.979 122.954 162.207 122.822C162.447 122.678 162.729 122.558 163.053 122.462C163.377 122.354 163.737 122.3 164.133 122.3C164.589 122.3 164.991 122.408 165.339 122.624C165.699 122.828 165.879 123.14 165.879 123.56V129.5H167.319V123.56C167.319 123.02 167.181 122.564 166.905 122.192C166.641 121.82 166.269 121.538 165.789 121.346C165.321 121.142 164.769 121.04 164.133 121.04C163.389 121.04 162.753 121.154 162.225 121.382C161.697 121.61 161.277 121.838 160.965 122.066L161.667 123.164Z" fill="#292929"/>
<rect x="0.5" y="0.5" width="253" height="187" rx="4.5" stroke="#EDEDED"/>
<defs>
<clipPath id="clip0_2_380">
<rect width="49" height="49" fill="white" transform="translate(102.5 54.5)"/>
</clipPath>
</defs>
</svg>
