<svg width="254" height="188" viewBox="0 0 254 188" fill="none" xmlns="http://www.w3.org/2000/svg">
<rect x="0.5" y="0.5" width="253" height="187" rx="4.5" fill="white"/>
<g clip-path="url(#clip0_2_372)">
<path d="M123.194 54.6819C120.208 55.2178 117.653 56.4141 115.317 58.3664C114.159 59.3426 113.384 60.2518 113.384 60.6346C113.384 61.027 113.758 61.3906 114.169 61.3906C114.427 61.3906 114.581 61.2854 115.107 60.7303C117.49 58.2037 120.591 56.5768 123.902 56.127C125.022 55.9739 127.079 55.993 128.18 56.1748C131.338 56.6821 134.171 58.1463 136.449 60.4528C137.769 61.783 138.765 63.276 139.559 65.1039C139.789 65.6399 140.047 66.0897 140.191 66.1949C140.363 66.3194 140.708 66.3959 141.483 66.4629C143.923 66.6735 145.933 67.6209 147.608 69.3531C148.823 70.5973 149.493 71.7457 150.01 73.4492C150.364 74.6264 150.431 76.751 150.144 78.0334C149.809 79.5455 149.139 80.8949 148.105 82.1774C147.474 82.9526 147.407 83.2684 147.79 83.6416C148.163 84.0244 148.555 83.967 149.034 83.4598C150.354 82.0817 151.426 79.8709 151.761 77.8229C151.924 76.8276 151.876 74.7508 151.675 73.7842C150.737 69.3149 147.292 65.9174 142.842 65.0752C142.421 64.9987 141.875 64.9317 141.626 64.9317H141.186L140.803 64.0895C139.377 60.9408 137.109 58.4143 134.123 56.6629C132.448 55.6772 130.659 55.036 128.62 54.6819C127.175 54.4426 124.582 54.4426 123.194 54.6819Z" fill="#292929"/>
<path d="M111.815 62.74C111.595 62.874 110.8 64.5201 110.427 65.6494C110.092 66.6734 109.767 68.1855 109.681 69.1809L109.623 69.8986L108.953 70.0996C105.948 71.0184 103.651 73.5258 103.001 76.617C102.819 77.4879 102.819 79.3637 103.001 80.2346C103.651 83.3354 105.91 85.7949 108.934 86.7137C109.748 86.9625 109.92 86.9721 112.217 87.0199L114.629 87.0582V88.8191C114.629 91.2691 114.581 91.3457 113.25 91.3457C112.762 91.3457 112.753 91.3361 112.628 91.0012C112.293 90.0729 111.289 89.4316 110.178 89.4316C108.618 89.4412 107.547 90.5035 107.547 92.0635C107.547 93.1832 108.102 94.0541 109.078 94.4943C109.7 94.7814 110.695 94.7623 111.327 94.4656C111.872 94.2168 112.447 93.6234 112.628 93.1354L112.743 92.8004L113.777 92.7621C114.743 92.7334 114.83 92.7143 115.212 92.4463C115.432 92.2836 115.72 91.9678 115.844 91.7381C116.055 91.3361 116.064 91.2309 116.064 89.1732V87.0391H118.313H120.562V88.1301C120.562 89.202 120.572 89.2307 120.811 89.4221C121.136 89.6805 121.423 89.6805 121.749 89.4221C121.988 89.2307 121.998 89.202 121.998 88.1301V87.0391H124.295H126.591V90.427V93.8244L126.84 94.0158C127.166 94.2742 127.453 94.2742 127.778 94.0158L128.027 93.8244V90.427V87.0391H130.324H132.621V91.8529V96.6764L132.841 97.0975C132.965 97.3271 133.252 97.643 133.473 97.8057C133.855 98.0736 133.941 98.0928 134.908 98.1215L135.942 98.1598L136.056 98.4947C136.391 99.4135 137.396 100.055 138.506 100.055C140.066 100.055 141.129 98.9828 141.138 97.4229C141.138 95.8629 140.066 94.8006 138.506 94.791C137.387 94.791 136.391 95.4322 136.056 96.3701L135.923 96.7242L135.176 96.6859C134.65 96.6572 134.382 96.5902 134.267 96.4754C134.123 96.3318 134.104 95.8916 134.075 91.6807L134.047 87.0391H136.305H138.554V89.1732C138.554 91.2309 138.564 91.3361 138.774 91.7381C138.899 91.9678 139.186 92.2836 139.406 92.4463C139.789 92.7143 139.875 92.7334 140.842 92.7621L141.875 92.8004L141.99 93.1354C142.325 94.0541 143.33 94.6953 144.44 94.6953C146 94.6953 147.062 93.6234 147.072 92.0635C147.072 90.5035 146 89.4412 144.44 89.4316C143.32 89.4316 142.325 90.0729 141.99 91.0107L141.856 91.3648L141.11 91.3266C140.009 91.2596 140.047 91.3457 140.009 89.0105L139.98 87.0582L141.445 87.0199C143.052 86.9625 143.799 86.8189 145.129 86.2639C146.316 85.7662 146.651 85.2781 146.201 84.7039C145.933 84.3594 145.569 84.3785 144.584 84.7996C144.134 84.9814 143.406 85.2303 142.957 85.3355C142.143 85.5365 142.105 85.5365 126.4 85.5174C116.189 85.5078 110.456 85.46 110.092 85.4025C107.958 85.0293 106.14 83.632 105.087 81.5457C104.14 79.6604 104.14 77.1912 105.087 75.3059C106.082 73.3248 107.748 71.9945 109.872 71.449C111.011 71.1619 111.126 70.9992 111.222 69.4775C111.327 67.8506 111.786 66.1566 112.581 64.4627C112.81 63.9746 113.002 63.4578 113.002 63.3334C113.002 62.8262 112.293 62.4721 111.815 62.74ZM110.954 91.2883C111.231 91.5658 111.279 91.6807 111.279 92.0635C111.279 92.4463 111.231 92.5611 110.954 92.8387C110.676 93.1162 110.561 93.1641 110.178 93.1641C109.796 93.1641 109.681 93.1162 109.403 92.8387C109.126 92.5611 109.078 92.4463 109.078 92.0635C109.078 91.6807 109.126 91.5658 109.403 91.2883C109.681 91.0107 109.796 90.9629 110.178 90.9629C110.561 90.9629 110.676 91.0107 110.954 91.2883ZM145.215 91.2883C145.493 91.5658 145.541 91.6807 145.541 92.0635C145.541 92.4463 145.493 92.5611 145.215 92.8387C144.938 93.1162 144.823 93.1641 144.44 93.1641C144.057 93.1641 143.942 93.1162 143.665 92.8387C143.387 92.5611 143.34 92.4463 143.34 92.0635C143.34 91.6807 143.387 91.5658 143.665 91.2883C143.942 91.0107 144.057 90.9629 144.44 90.9629C144.823 90.9629 144.938 91.0107 145.215 91.2883ZM139.282 96.6477C139.559 96.9252 139.607 97.04 139.607 97.4229C139.607 97.8057 139.559 97.9205 139.282 98.198C139.004 98.4756 138.889 98.5234 138.506 98.5234C138.124 98.5234 138.009 98.4756 137.731 98.198C137.454 97.9205 137.406 97.8057 137.406 97.4229C137.406 97.04 137.454 96.9252 137.731 96.6477C138.009 96.3701 138.124 96.3223 138.506 96.3223C138.889 96.3223 139.004 96.3701 139.282 96.6477Z" fill="#292929"/>
<path d="M120.772 91.6328C120.572 91.8242 120.562 91.8912 120.562 93.8914C120.562 96.6668 120.543 96.7051 119.184 96.7051C118.696 96.7051 118.686 96.6955 118.562 96.3605C118.495 96.1691 118.275 95.8437 118.083 95.6236C117.097 94.523 115.193 94.4943 114.179 95.5662C113.202 96.5998 113.241 98.3895 114.255 99.3561C115.317 100.351 117.117 100.294 118.083 99.2221C118.275 99.002 118.495 98.6766 118.562 98.4947L118.677 98.1598L119.71 98.1215C120.677 98.0928 120.763 98.0736 121.146 97.8057C121.366 97.643 121.653 97.3271 121.777 97.0975C121.988 96.6859 121.997 96.5998 121.997 94.2646C121.997 91.8721 121.997 91.8529 121.777 91.652C121.5 91.384 121.05 91.384 120.772 91.6328ZM116.887 96.6477C117.164 96.9252 117.212 97.04 117.212 97.4229C117.212 97.8057 117.164 97.9205 116.887 98.198C116.609 98.4756 116.495 98.5234 116.112 98.5234C115.729 98.5234 115.614 98.4756 115.337 98.198C115.059 97.9205 115.011 97.8057 115.011 97.4229C115.011 97.04 115.059 96.9252 115.337 96.6477C115.614 96.3701 115.729 96.3223 116.112 96.3223C116.495 96.3223 116.609 96.3701 116.887 96.6477Z" fill="#292929"/>
<path d="M126.802 96.2266C126.61 96.4084 126.591 96.5232 126.591 97.3559V98.2937L126.247 98.4182C125.318 98.7531 124.677 99.758 124.677 100.868C124.677 102.428 125.749 103.5 127.309 103.5C128.869 103.5 129.941 102.428 129.941 100.868C129.941 99.758 129.3 98.7531 128.371 98.4182L128.027 98.2937V97.375C128.027 96.5328 128.008 96.4371 127.807 96.2457C127.529 95.9777 127.079 95.9777 126.802 96.2266ZM128.084 100.093C128.362 100.371 128.41 100.485 128.41 100.868C128.41 101.251 128.362 101.366 128.084 101.643C127.807 101.921 127.692 101.969 127.309 101.969C126.658 101.969 126.208 101.519 126.208 100.868C126.208 100.485 126.256 100.371 126.534 100.093C126.811 99.8154 126.926 99.7676 127.309 99.7676C127.692 99.7676 127.807 99.8154 128.084 100.093Z" fill="#292929"/>
</g>
<path d="M62.7277 123.2C62.7277 122.252 62.9317 121.406 63.3397 120.662C63.7597 119.918 64.3297 119.33 65.0497 118.898C65.7697 118.466 66.5857 118.25 67.4977 118.25C68.4217 118.25 69.2377 118.466 69.9457 118.898C70.6657 119.33 71.2297 119.918 71.6377 120.662C72.0577 121.406 72.2677 122.252 72.2677 123.2C72.2677 124.148 72.0577 124.994 71.6377 125.738C71.2297 126.482 70.6657 127.07 69.9457 127.502C69.2377 127.934 68.4217 128.15 67.4977 128.15C66.5857 128.15 65.7697 127.934 65.0497 127.502C64.3297 127.07 63.7597 126.482 63.3397 125.738C62.9317 124.994 62.7277 124.148 62.7277 123.2ZM61.1077 123.2C61.1077 124.112 61.2637 124.964 61.5757 125.756C61.8997 126.548 62.3497 127.238 62.9257 127.826C63.5017 128.402 64.1797 128.858 64.9597 129.194C65.7397 129.518 66.5857 129.68 67.4977 129.68C68.4217 129.68 69.2677 129.518 70.0357 129.194C70.8157 128.858 71.4937 128.402 72.0697 127.826C72.6457 127.238 73.0897 126.548 73.4017 125.756C73.7257 124.964 73.8877 124.112 73.8877 123.2C73.8877 122.276 73.7257 121.424 73.4017 120.644C73.0897 119.852 72.6457 119.168 72.0697 118.592C71.4937 118.004 70.8157 117.548 70.0357 117.224C69.2677 116.888 68.4217 116.72 67.4977 116.72C66.5857 116.72 65.7397 116.888 64.9597 117.224C64.1797 117.548 63.5017 118.004 62.9257 118.592C62.3497 119.168 61.8997 119.852 61.5757 120.644C61.2637 121.424 61.1077 122.276 61.1077 123.2ZM76.8044 125.81H82.9244V124.46H76.8044V125.81ZM81.9884 121.22V129.5H83.4284V121.22H81.9884ZM75.9584 121.22V129.5H77.3984V121.22H75.9584ZM93.3901 121.22H86.2801V126.62C86.2801 127.208 86.1481 127.616 85.8841 127.844C85.6321 128.072 85.3261 128.186 84.9661 128.186V129.5C85.5901 129.5 86.1061 129.398 86.5141 129.194C86.9221 128.978 87.2221 128.66 87.4141 128.24C87.6181 127.808 87.7201 127.268 87.7201 126.62V122.57H91.9501V129.5H93.3901V121.22ZM96.8212 127.07C96.8212 126.734 96.8992 126.446 97.0552 126.206C97.2112 125.966 97.4452 125.78 97.7572 125.648C98.0812 125.516 98.4832 125.45 98.9632 125.45C99.4912 125.45 99.9652 125.522 100.385 125.666C100.805 125.798 101.219 126.008 101.627 126.296V125.45C101.543 125.342 101.387 125.204 101.159 125.036C100.931 124.856 100.625 124.7 100.241 124.568C99.8692 124.424 99.4192 124.352 98.8912 124.352C98.1712 124.352 97.5472 124.466 97.0192 124.694C96.4912 124.91 96.0832 125.222 95.7952 125.63C95.5072 126.038 95.3632 126.536 95.3632 127.124C95.3632 127.688 95.4892 128.162 95.7412 128.546C96.0052 128.918 96.3532 129.2 96.7852 129.392C97.2172 129.584 97.6912 129.68 98.2072 129.68C98.7832 129.68 99.3052 129.584 99.7732 129.392C100.241 129.188 100.613 128.9 100.889 128.528C101.177 128.144 101.321 127.688 101.321 127.16L101.033 126.26C101.033 126.776 100.925 127.19 100.709 127.502C100.505 127.814 100.217 128.042 99.8452 128.186C99.4732 128.33 99.0472 128.402 98.5672 128.402C98.2432 128.402 97.9492 128.354 97.6852 128.258C97.4212 128.15 97.2112 128 97.0552 127.808C96.8992 127.604 96.8212 127.358 96.8212 127.07ZM96.8212 123.164C96.9532 123.068 97.1332 122.954 97.3612 122.822C97.6012 122.678 97.8832 122.558 98.2072 122.462C98.5312 122.354 98.8912 122.3 99.2872 122.3C99.7432 122.3 100.145 122.408 100.493 122.624C100.853 122.828 101.033 123.14 101.033 123.56V129.5H102.473V123.56C102.473 123.02 102.335 122.564 102.059 122.192C101.795 121.82 101.423 121.538 100.943 121.346C100.475 121.142 99.9232 121.04 99.2872 121.04C98.5432 121.04 97.9072 121.154 97.3792 121.382C96.8512 121.61 96.4312 121.838 96.1192 122.066L96.8212 123.164ZM111.84 122.66L111.93 120.59L105.09 128.06L105 130.13L111.84 122.66ZM106.44 121.22H105V130.13L106.44 128.15V121.22ZM111.93 120.59L110.49 122.57V129.5H111.93V120.59ZM105.666 116.99C105.666 117.398 105.768 117.8 105.972 118.196C106.188 118.58 106.506 118.898 106.926 119.15C107.358 119.39 107.886 119.51 108.51 119.51C109.146 119.51 109.674 119.39 110.094 119.15C110.514 118.898 110.826 118.58 111.03 118.196C111.246 117.8 111.354 117.398 111.354 116.99H110.076C110.076 117.146 110.034 117.332 109.95 117.548C109.866 117.752 109.71 117.938 109.482 118.106C109.254 118.262 108.93 118.34 108.51 118.34C108.09 118.34 107.766 118.262 107.538 118.106C107.31 117.938 107.154 117.752 107.07 117.548C106.986 117.332 106.944 117.146 106.944 116.99H105.666ZM115.564 125.81H121.684V124.46H115.564V125.81ZM120.748 121.22V129.5H122.188V121.22H120.748ZM114.718 121.22V129.5H116.158V121.22H114.718ZM123.636 125.9H127.236V124.55H123.636V125.9ZM129.323 125.36C129.323 124.784 129.443 124.274 129.683 123.83C129.935 123.374 130.271 123.02 130.691 122.768C131.123 122.516 131.609 122.39 132.149 122.39C132.593 122.39 133.007 122.462 133.391 122.606C133.787 122.738 134.129 122.918 134.417 123.146C134.705 123.374 134.909 123.626 135.029 123.902V122.102C134.741 121.766 134.327 121.508 133.787 121.328C133.259 121.136 132.713 121.04 132.149 121.04C131.345 121.04 130.619 121.226 129.971 121.598C129.323 121.97 128.807 122.48 128.423 123.128C128.051 123.776 127.865 124.52 127.865 125.36C127.865 126.188 128.051 126.932 128.423 127.592C128.807 128.24 129.323 128.75 129.971 129.122C130.619 129.494 131.345 129.68 132.149 129.68C132.713 129.68 133.259 129.59 133.787 129.41C134.327 129.218 134.741 128.954 135.029 128.618V126.818C134.909 127.082 134.705 127.334 134.417 127.574C134.129 127.802 133.787 127.988 133.391 128.132C133.007 128.264 132.593 128.33 132.149 128.33C131.609 128.33 131.123 128.204 130.691 127.952C130.271 127.688 129.935 127.334 129.683 126.89C129.443 126.446 129.323 125.936 129.323 125.36ZM137.469 125.72H144.543C144.555 125.648 144.561 125.576 144.561 125.504C144.561 125.432 144.561 125.36 144.561 125.288C144.561 124.412 144.399 123.662 144.075 123.038C143.751 122.402 143.295 121.91 142.707 121.562C142.119 121.214 141.435 121.04 140.655 121.04C139.947 121.04 139.305 121.184 138.729 121.472C138.165 121.76 137.703 122.162 137.343 122.678C136.983 123.194 136.743 123.794 136.623 124.478C136.599 124.622 136.581 124.766 136.569 124.91C136.557 125.054 136.551 125.204 136.551 125.36C136.551 126.188 136.719 126.932 137.055 127.592C137.403 128.24 137.871 128.75 138.459 129.122C139.059 129.494 139.731 129.68 140.475 129.68C141.195 129.68 141.795 129.596 142.275 129.428C142.755 129.248 143.163 129.002 143.499 128.69C143.835 128.366 144.141 127.994 144.417 127.574L143.247 126.836C143.067 127.136 142.851 127.4 142.599 127.628C142.347 127.844 142.059 128.018 141.735 128.15C141.423 128.27 141.063 128.33 140.655 128.33C140.115 128.33 139.647 128.216 139.251 127.988C138.855 127.76 138.549 127.424 138.333 126.98C138.117 126.536 138.009 125.996 138.009 125.36L138.045 124.82C138.045 124.304 138.159 123.86 138.387 123.488C138.627 123.104 138.945 122.81 139.341 122.606C139.737 122.402 140.175 122.3 140.655 122.3C141.135 122.3 141.537 122.396 141.861 122.588C142.197 122.768 142.455 123.026 142.635 123.362C142.827 123.686 142.947 124.064 142.995 124.496H137.469V125.72ZM147.885 133.46V121.22H146.445V133.46H147.885ZM154.815 125.36C154.815 124.46 154.629 123.692 154.257 123.056C153.885 122.408 153.387 121.91 152.763 121.562C152.151 121.214 151.467 121.04 150.711 121.04C150.027 121.04 149.421 121.214 148.893 121.562C148.377 121.91 147.969 122.408 147.669 123.056C147.381 123.692 147.237 124.46 147.237 125.36C147.237 126.248 147.381 127.016 147.669 127.664C147.969 128.312 148.377 128.81 148.893 129.158C149.421 129.506 150.027 129.68 150.711 129.68C151.467 129.68 152.151 129.506 152.763 129.158C153.387 128.81 153.885 128.312 154.257 127.664C154.629 127.016 154.815 126.248 154.815 125.36ZM153.357 125.36C153.357 125.996 153.225 126.536 152.961 126.98C152.709 127.424 152.367 127.76 151.935 127.988C151.515 128.216 151.047 128.33 150.531 128.33C150.111 128.33 149.697 128.216 149.289 127.988C148.881 127.76 148.545 127.424 148.281 126.98C148.017 126.536 147.885 125.996 147.885 125.36C147.885 124.724 148.017 124.184 148.281 123.74C148.545 123.296 148.881 122.96 149.289 122.732C149.697 122.504 150.111 122.39 150.531 122.39C151.047 122.39 151.515 122.504 151.935 122.732C152.367 122.96 152.709 123.296 152.961 123.74C153.225 124.184 153.357 124.724 153.357 125.36ZM157.646 125.18V125.936H160.04C160.316 125.936 160.55 125.966 160.742 126.026C160.946 126.074 161.108 126.152 161.228 126.26C161.36 126.368 161.456 126.488 161.516 126.62C161.588 126.752 161.624 126.902 161.624 127.07C161.624 127.394 161.492 127.67 161.228 127.898C160.976 128.126 160.58 128.24 160.04 128.24H157.646V129.5H160.4C161.348 129.5 162.026 129.284 162.434 128.852C162.854 128.408 163.064 127.874 163.064 127.25C163.064 126.71 162.932 126.29 162.668 125.99C162.404 125.69 162.044 125.48 161.588 125.36C161.132 125.24 160.616 125.18 160.04 125.18H157.646ZM157.646 125.54H159.86C160.376 125.54 160.844 125.468 161.264 125.324C161.696 125.168 162.044 124.94 162.308 124.64C162.572 124.328 162.704 123.938 162.704 123.47C162.704 122.93 162.572 122.498 162.308 122.174C162.044 121.838 161.696 121.598 161.264 121.454C160.844 121.298 160.376 121.22 159.86 121.22H157.646V122.48H159.86C160.292 122.48 160.634 122.582 160.886 122.786C161.138 122.978 161.264 123.236 161.264 123.56C161.264 123.716 161.228 123.866 161.156 124.01C161.096 124.142 161.006 124.262 160.886 124.37C160.766 124.478 160.616 124.562 160.436 124.622C160.268 124.67 160.076 124.694 159.86 124.694H157.646V125.54ZM156.8 121.22V129.5H158.24V121.22H156.8ZM171.886 122.66L171.976 120.59L165.136 128.06L165.046 130.13L171.886 122.66ZM166.486 121.22H165.046V130.13L166.486 128.15V121.22ZM171.976 120.59L170.536 122.57V129.5H171.976V120.59ZM175.413 125.36C175.413 124.784 175.533 124.274 175.773 123.83C176.025 123.374 176.361 123.02 176.781 122.768C177.213 122.516 177.699 122.39 178.239 122.39C178.683 122.39 179.097 122.462 179.481 122.606C179.877 122.738 180.219 122.918 180.507 123.146C180.795 123.374 180.999 123.626 181.119 123.902V122.102C180.831 121.766 180.417 121.508 179.877 121.328C179.349 121.136 178.803 121.04 178.239 121.04C177.435 121.04 176.709 121.226 176.061 121.598C175.413 121.97 174.897 122.48 174.513 123.128C174.141 123.776 173.955 124.52 173.955 125.36C173.955 126.188 174.141 126.932 174.513 127.592C174.897 128.24 175.413 128.75 176.061 129.122C176.709 129.494 177.435 129.68 178.239 129.68C178.803 129.68 179.349 129.59 179.877 129.41C180.417 129.218 180.831 128.954 181.119 128.618V126.818C180.999 127.082 180.795 127.334 180.507 127.574C180.219 127.802 179.877 127.988 179.481 128.132C179.097 128.264 178.683 128.33 178.239 128.33C177.699 128.33 177.213 128.204 176.781 127.952C176.361 127.688 176.025 127.334 175.773 126.89C175.533 126.446 175.413 125.936 175.413 125.36ZM190.831 121.22V129.5H192.271V121.22H190.831ZM183.361 121.22V129.5H184.801V121.22H183.361ZM184.207 125.612H186.781C187.309 125.612 187.705 125.726 187.969 125.954C188.233 126.182 188.365 126.506 188.365 126.926C188.365 127.202 188.305 127.442 188.185 127.646C188.065 127.838 187.885 127.988 187.645 128.096C187.417 128.192 187.129 128.24 186.781 128.24H184.207V129.5H186.781C187.357 129.5 187.873 129.41 188.329 129.23C188.785 129.05 189.145 128.768 189.409 128.384C189.673 128 189.805 127.514 189.805 126.926C189.805 126.038 189.511 125.39 188.923 124.982C188.347 124.562 187.633 124.352 186.781 124.352H184.207V125.612Z" fill="#292929"/>
<rect x="0.5" y="0.5" width="253" height="187" rx="4.5" stroke="#EDEDED"/>
<defs>
<clipPath id="clip0_2_372">
<rect width="49" height="49" fill="white" transform="translate(102.5 54.5)"/>
</clipPath>
</defs>
</svg>
