<svg width="191" height="37" viewBox="0 0 191 37" fill="none" xmlns="http://www.w3.org/2000/svg">
<path d="M29.3208 1.1781V35.8218H21.2925V12.4336L18.0856 35.8218H12.3917L9.01019 12.9685V35.8218H0.981934V1.1781H12.8716C13.2207 3.26086 13.5915 5.71452 13.9842 8.53908L15.2495 17.3551L17.3439 1.1781H29.3208Z" fill="#FFA412"/>
<path d="M41.9618 18.4251H33.6936V16.5206C33.6936 14.3237 33.9481 12.6333 34.4571 11.4492C34.9807 10.2509 36.0206 9.19529 37.5768 8.2823C39.133 7.36931 41.1546 6.91282 43.6416 6.91282C46.6231 6.91282 48.8702 7.43351 50.3828 8.47489C51.8953 9.502 52.8043 10.7716 53.1097 12.2838C53.4152 13.7816 53.5679 16.8772 53.5679 21.5706V35.8218H44.9942V33.2968C44.4561 34.3096 43.758 35.0728 42.8999 35.5864C42.0564 36.0857 41.0455 36.3353 39.8675 36.3353C38.3258 36.3353 36.9078 35.9145 35.6134 35.0728C34.3335 34.2169 33.6936 32.3553 33.6936 29.4879V27.1555C33.6936 25.03 34.0354 23.582 34.7189 22.8117C35.4025 22.0413 37.0969 21.1426 39.802 20.1155C42.6963 19.0028 44.2452 18.2539 44.4488 17.8687C44.6524 17.4835 44.7542 16.6989 44.7542 15.5149C44.7542 14.0313 44.6379 13.0684 44.4052 12.6261C44.187 12.1696 43.8162 11.9414 43.2926 11.9414C42.6963 11.9414 42.3254 12.134 42.18 12.5191C42.0345 12.89 41.9618 13.8672 41.9618 15.4507V18.4251ZM44.7542 22.3195C43.3435 23.3324 42.5218 24.1812 42.2891 24.8659C42.0709 25.5507 41.9618 26.535 41.9618 27.8189C41.9618 29.2882 42.0564 30.2369 42.2454 30.6648C42.449 31.0928 42.8417 31.3068 43.4235 31.3068C43.9762 31.3068 44.3325 31.1427 44.4925 30.8146C44.667 30.4722 44.7542 29.5878 44.7542 28.1612V22.3195Z" fill="#FFA412"/>
<path d="M66.907 7.42637L66.7543 10.037C67.3942 8.99558 68.1723 8.21811 69.0886 7.70455C70.0194 7.17673 71.0884 6.91282 72.2955 6.91282C73.8081 6.91282 75.0443 7.26232 76.0042 7.96133C76.9641 8.66034 77.5823 9.5448 77.8586 10.6147C78.1349 11.6704 78.2731 13.4393 78.2731 15.9215V35.8218H69.4595V16.1568C69.4595 14.2025 69.394 13.0113 69.2631 12.5833C69.1322 12.1554 68.7686 11.9414 68.1723 11.9414C67.5469 11.9414 67.1543 12.191 66.9943 12.6903C66.8343 13.1754 66.7543 14.4878 66.7543 16.6276V35.8218H57.9407V7.42637H66.907Z" fill="#FFA412"/>
<path d="M102.847 7.42637V35.8218H93.8811L94.0338 33.468C93.4229 34.4238 92.6666 35.1442 91.7649 35.6292C90.8777 36.1 89.8524 36.3353 88.6889 36.3353C87.3654 36.3353 86.2673 36.1071 85.3947 35.6506C84.522 35.1941 83.8748 34.5878 83.4531 33.8318C83.0458 33.0757 82.7913 32.2911 82.6895 31.478C82.5877 30.6506 82.5368 29.0172 82.5368 26.5778V7.42637H91.3504V26.749C91.3504 28.9601 91.4159 30.2725 91.5468 30.6862C91.6922 31.0999 92.0703 31.3068 92.6812 31.3068C93.3357 31.3068 93.7211 31.0928 93.8374 30.6648C93.9683 30.2369 94.0338 28.8602 94.0338 26.535V7.42637H102.847Z" fill="#FFA412"/>
<path d="M115.227 18.4251H106.958V16.5206C106.958 14.3237 107.213 12.6333 107.722 11.4492C108.246 10.2509 109.285 9.19529 110.842 8.2823C112.398 7.36931 114.419 6.91282 116.906 6.91282C119.888 6.91282 122.135 7.43351 123.648 8.47489C125.16 9.502 126.069 10.7716 126.375 12.2838C126.68 13.7816 126.833 16.8772 126.833 21.5706V35.8218H118.259V33.2968C117.721 34.3096 117.023 35.0728 116.165 35.5864C115.321 36.0857 114.31 36.3353 113.132 36.3353C111.591 36.3353 110.173 35.9145 108.878 35.0728C107.598 34.2169 106.958 32.3553 106.958 29.4879V27.1555C106.958 25.03 107.3 23.582 107.984 22.8117C108.667 22.0413 110.362 21.1426 113.067 20.1155C115.961 19.0028 117.51 18.2539 117.714 17.8687C117.917 17.4835 118.019 16.6989 118.019 15.5149C118.019 14.0313 117.903 13.0684 117.67 12.6261C117.452 12.1696 117.081 11.9414 116.557 11.9414C115.961 11.9414 115.59 12.134 115.445 12.5191C115.299 12.89 115.227 13.8672 115.227 15.4507V18.4251ZM118.019 22.3195C116.608 23.3324 115.787 24.1812 115.554 24.8659C115.336 25.5507 115.227 26.535 115.227 27.8189C115.227 29.2882 115.321 30.2369 115.51 30.6648C115.714 31.0928 116.107 31.3068 116.688 31.3068C117.241 31.3068 117.597 31.1427 117.757 30.8146C117.932 30.4722 118.019 29.5878 118.019 28.1612V22.3195Z" fill="#FFA412"/>
<path d="M140.281 1.1781V35.8218H131.205V1.1781H140.281Z" fill="#FFA412"/>
<path d="M145.068 1.1781H154.318C156.82 1.1781 158.739 1.37068 160.078 1.75585C161.43 2.14102 162.441 2.69737 163.11 3.42491C163.794 4.15245 164.252 5.03691 164.484 6.07829C164.732 7.1054 164.855 8.70313 164.855 10.8715V13.8886C164.855 16.0998 164.623 17.7118 164.157 18.7246C163.692 19.7375 162.834 20.5149 161.583 21.057C160.347 21.5991 158.725 21.8702 156.718 21.8702H154.253V35.8218H145.068V1.1781ZM154.253 7.1054V15.9215C154.514 15.9357 154.74 15.9429 154.929 15.9429C155.773 15.9429 156.354 15.7431 156.674 15.3437C157.009 14.93 157.176 14.0812 157.176 12.7973V9.95136C157.176 8.76733 156.987 7.99699 156.609 7.64036C156.231 7.28372 155.445 7.1054 154.253 7.1054Z" fill="#FFA412"/>
<path d="M190.28 16.2852H181.096V10.2509C181.096 8.49629 180.994 7.40498 180.79 6.97701C180.601 6.53478 180.172 6.31367 179.503 6.31367C178.747 6.31367 178.267 6.57758 178.063 7.1054C177.86 7.63322 177.758 8.77446 177.758 10.5291V26.6206C177.758 28.3039 177.86 29.4023 178.063 29.9159C178.267 30.4294 178.725 30.6862 179.438 30.6862C180.121 30.6862 180.565 30.4294 180.769 29.9159C180.987 29.4023 181.096 28.1969 181.096 26.2996V21.9558H190.28V23.3038C190.28 26.8845 190.019 29.4237 189.495 30.9216C188.986 32.4195 187.844 33.7319 186.07 34.8589C184.31 35.9858 182.136 36.5493 179.547 36.5493C176.856 36.5493 174.638 36.0714 172.893 35.1156C171.148 34.1599 169.992 32.8403 169.424 31.157C168.857 29.4594 168.574 26.913 168.574 23.5178V13.3965C168.574 10.9 168.661 9.03124 168.835 7.79014C169.01 6.53478 169.526 5.32935 170.384 4.17385C171.257 3.01835 172.457 2.11249 173.984 1.45628C175.526 0.7858 177.293 0.450562 179.285 0.450562C181.99 0.450562 184.223 0.964118 185.983 1.99123C187.742 3.01835 188.899 4.30224 189.451 5.84291C190.004 7.36931 190.28 9.75165 190.28 12.9899V16.2852Z" fill="#FFA412"/>
</svg>
