<svg width="29" height="37" viewBox="0 0 29 37" fill="none" xmlns="http://www.w3.org/2000/svg">
<path d="M1 18.85C1 16.8898 1 15.9097 1.36785 15.161C1.69143 14.5025 2.20773 13.967 2.84278 13.6315C3.56473 13.25 4.50982 13.25 6.4 13.25H22.6C24.4902 13.25 25.4353 13.25 26.1572 13.6315C26.7923 13.967 27.3086 14.5025 27.6321 15.161C28 15.9097 28 16.8898 28 18.85V27.6C28 30.5403 28 32.0104 27.4482 33.1335C26.9629 34.1213 26.1884 34.9244 25.2358 35.4278C24.1529 36 22.7353 36 19.9 36H9.1C6.26473 36 4.8471 36 3.76417 35.4278C2.8116 34.9244 2.03714 34.1213 1.55178 33.1335C1 32.0104 1 30.5403 1 27.6V18.85Z" fill="#176EF0"/>
<path d="M24.625 13.25V3.8C24.625 2.81991 24.625 2.32986 24.4411 1.95552C24.2793 1.62623 24.0211 1.35852 23.7036 1.19074C23.3426 1 22.8701 1 21.925 1H7.075C6.12991 1 5.65737 1 5.29639 1.19074C4.97887 1.35852 4.72071 1.62623 4.55893 1.95552C4.375 2.32986 4.375 2.81991 4.375 3.8V13.25M11.125 8V6.25M17.875 8V6.25M9.1 36H19.9C22.7353 36 24.1529 36 25.2358 35.4278C26.1884 34.9244 26.9629 34.1213 27.4482 33.1335C28 32.0104 28 30.5403 28 27.6V18.85C28 16.8898 28 15.9097 27.6321 15.161C27.3086 14.5025 26.7923 13.967 26.1572 13.6315C25.4353 13.25 24.4902 13.25 22.6 13.25H6.4C4.50982 13.25 3.56473 13.25 2.84278 13.6315C2.20774 13.967 1.69143 14.5025 1.36785 15.161C1 15.9097 1 16.8898 1 18.85V27.6C1 30.5403 1 32.0104 1.55178 33.1335C2.03714 34.1213 2.8116 34.9244 3.76417 35.4278C4.8471 36 6.26473 36 9.1 36Z" stroke="#176EF0" stroke-width="2" stroke-linecap="round" stroke-linejoin="round"/>
</svg>
