<svg width="451" height="87" viewBox="0 0 451 87" fill="none" xmlns="http://www.w3.org/2000/svg">
<path d="M68.0567 2.65917V84.9038H48.9975V29.3798L41.3842 84.9038H27.8666L19.839 30.6498V84.9038H0.779785V2.65917H29.0061C29.8347 7.60367 30.7152 13.4287 31.6474 20.1343L34.6513 41.0637L39.6233 2.65917H68.0567Z" fill="#FFA412"/>
<path d="M98.0667 43.6037H78.4378V39.0825C78.4378 33.8671 79.042 29.8539 80.2505 27.043C81.4934 24.1982 83.9622 21.6921 87.6566 19.5247C91.3511 17.3572 96.1504 16.2735 102.055 16.2735C109.133 16.2735 114.467 17.5096 118.058 19.9819C121.649 22.4202 123.807 25.4344 124.532 29.0242C125.257 32.5802 125.62 39.9292 125.62 51.0713V84.9038H105.266V78.9095C103.988 81.314 102.331 83.1258 100.294 84.345C98.2911 85.5304 95.8914 86.123 93.0947 86.123C89.4348 86.123 86.0684 85.124 82.9954 83.1258C79.957 81.0939 78.4378 76.6743 78.4378 69.8671V64.33C78.4378 59.2839 79.2492 55.8464 80.872 54.0176C82.4948 52.1888 86.5172 50.0553 92.9393 47.6169C99.8103 44.9753 103.487 43.1973 103.971 42.2829C104.454 41.3685 104.696 39.5059 104.696 36.6949C104.696 33.1728 104.42 30.8868 103.867 29.837C103.349 28.7533 102.469 28.2114 101.226 28.2114C99.8103 28.2114 98.9299 28.6686 98.5846 29.583C98.2393 30.4635 98.0667 32.7834 98.0667 36.5425V43.6037ZM104.696 52.8492C101.347 55.2538 99.396 57.2688 98.8435 58.8944C98.3256 60.52 98.0667 62.8568 98.0667 65.9048C98.0667 69.393 98.2911 71.6451 98.74 72.6611C99.2233 73.6771 100.156 74.1851 101.537 74.1851C102.849 74.1851 103.695 73.7956 104.074 73.0167C104.489 72.2039 104.696 70.1042 104.696 66.7176V52.8492Z" fill="#FFA412"/>
<path d="M157.287 17.4927L156.924 23.6902C158.444 21.218 160.291 19.3723 162.466 18.1531C164.676 16.9 167.214 16.2735 170.079 16.2735C173.67 16.2735 176.605 17.1032 178.884 18.7627C181.163 20.4221 182.63 22.5218 183.286 25.0618C183.942 27.5679 184.27 31.7674 184.27 37.6601V84.9038H163.347V38.2189C163.347 33.5792 163.191 30.7514 162.88 29.7354C162.57 28.7194 161.706 28.2114 160.291 28.2114C158.806 28.2114 157.874 28.8041 157.494 29.9894C157.114 31.1408 156.924 34.2566 156.924 39.3365V84.9038H136.001V17.4927H157.287Z" fill="#FFA412"/>
<path d="M242.61 17.4927V84.9038H221.324L221.686 79.3159C220.236 81.5849 218.441 83.2952 216.3 84.4466C214.194 85.5642 211.76 86.123 208.997 86.123C205.855 86.123 203.249 85.5812 201.177 84.4974C199.105 83.4137 197.569 81.9744 196.568 80.1795C195.601 78.3845 194.997 76.5219 194.755 74.5915C194.513 72.6272 194.392 68.7495 194.392 62.9584V17.4927H215.316V63.3648C215.316 68.6141 215.471 71.7298 215.782 72.7119C216.127 73.694 217.025 74.1851 218.475 74.1851C220.029 74.1851 220.944 73.6771 221.22 72.6611C221.531 71.6451 221.686 68.377 221.686 62.8568V17.4927H242.61Z" fill="#FFA412"/>
<path d="M271.999 43.6037H252.37V39.0825C252.37 33.8671 252.974 29.8539 254.182 27.043C255.425 24.1982 257.894 21.6921 261.588 19.5247C265.283 17.3572 270.082 16.2735 275.986 16.2735C283.065 16.2735 288.399 17.5096 291.99 19.9819C295.581 22.4202 297.739 25.4344 298.464 29.0242C299.189 32.5802 299.552 39.9292 299.552 51.0713V84.9038H279.198V78.9095C277.92 81.314 276.263 83.1258 274.226 84.345C272.223 85.5304 269.823 86.123 267.027 86.123C263.367 86.123 260 85.124 256.927 83.1258C253.889 81.0939 252.37 76.6743 252.37 69.8671V64.33C252.37 59.2839 253.181 55.8464 254.804 54.0176C256.427 52.1888 260.449 50.0553 266.871 47.6169C273.742 44.9753 277.419 43.1973 277.903 42.2829C278.386 41.3685 278.628 39.5059 278.628 36.6949C278.628 33.1728 278.352 30.8868 277.799 29.837C277.281 28.7533 276.401 28.2114 275.158 28.2114C273.742 28.2114 272.862 28.6686 272.516 29.583C272.171 30.4635 271.999 32.7834 271.999 36.5425V43.6037ZM278.628 52.8492C275.279 55.2538 273.328 57.2688 272.775 58.8944C272.257 60.52 271.999 62.8568 271.999 65.9048C271.999 69.393 272.223 71.6451 272.672 72.6611C273.155 73.6771 274.087 74.1851 275.469 74.1851C276.781 74.1851 277.626 73.7956 278.006 73.0167C278.421 72.2039 278.628 70.1042 278.628 66.7176V52.8492Z" fill="#FFA412"/>
<path d="M331.478 2.65917V84.9038H309.933V2.65917H331.478Z" fill="#FFA412"/>
<path d="M342.843 2.65917H364.802C370.741 2.65917 375.299 3.11636 378.475 4.03076C381.686 4.94515 384.086 6.26594 385.674 7.99313C387.297 9.72032 388.385 11.82 388.937 14.2923C389.524 16.7307 389.818 20.5237 389.818 25.6714V32.8342C389.818 38.0835 389.265 41.9104 388.16 44.3149C387.055 46.7194 385.018 48.5651 382.049 49.8521C379.114 51.139 375.264 51.7824 370.499 51.7824H364.647V84.9038H342.843V2.65917ZM364.647 16.7307V37.6601C365.268 37.694 365.804 37.7109 366.253 37.7109C368.255 37.7109 369.636 37.2368 370.396 36.2885C371.19 35.3064 371.587 33.2914 371.587 30.2434V23.487C371.587 20.6761 371.138 18.8473 370.24 18.0007C369.343 17.154 367.478 16.7307 364.647 16.7307Z" fill="#FFA412"/>
<path d="M450.177 38.5237H428.373V24.1982C428.373 20.0327 428.131 17.4419 427.648 16.4259C427.199 15.376 426.181 14.8511 424.592 14.8511C422.797 14.8511 421.657 15.4776 421.174 16.7307C420.691 17.9837 420.449 20.693 420.449 24.8586V63.06C420.449 67.0562 420.691 69.6639 421.174 70.8831C421.657 72.1023 422.745 72.7119 424.437 72.7119C426.06 72.7119 427.113 72.1023 427.596 70.8831C428.114 69.6639 428.373 66.8022 428.373 62.298V51.9856H450.177V55.186C450.177 63.6865 449.556 69.7147 448.313 73.2707C447.104 76.8267 444.394 79.9424 440.182 82.6178C436.004 85.2933 430.842 86.631 424.696 86.631C418.308 86.631 413.043 85.4965 408.9 83.2274C404.756 80.9584 402.011 77.8257 400.665 73.8295C399.318 69.7994 398.645 63.7542 398.645 55.694V31.6658C398.645 25.7391 398.852 21.3026 399.266 18.3563C399.681 15.376 400.906 12.5143 402.944 9.77112C405.015 7.02794 407.864 4.87742 411.489 3.31956C415.149 1.72784 419.344 0.931976 424.074 0.931976C430.497 0.931976 435.797 2.15117 439.974 4.58955C444.152 7.02794 446.897 10.0759 448.209 13.7335C449.521 17.3572 450.177 23.0129 450.177 30.7006V38.5237Z" fill="#FFA412"/>
</svg>
