<svg display="none" xmlns="http://www.w3.org/2000/svg">
    <symbol id="logoicon" viewBox="0 0 70 89">
        <g>
            
           <path d="M2.98425 45.6124C2.98425 40.9589 2.98425 38.6321 3.85754 36.8547C4.62571 35.2913 5.85143 34.0201 7.35905 33.2235C9.07297 32.3179 11.3166 32.3179 15.8039 32.3179H54.263C58.7503 32.3179 60.994 32.3179 62.7079 33.2235C64.2155 34.0201 65.4412 35.2913 66.2094 36.8547C67.0827 38.6321 67.0827 40.9589 67.0827 45.6124V66.385C67.0827 73.3653 67.0827 76.8554 65.7727 79.5215C64.6205 81.8667 62.7819 83.7734 60.5205 84.9683C57.9496 86.3268 54.5841 86.3268 47.8531 86.3268H22.2138C15.4828 86.3268 12.1173 86.3268 9.54644 84.9683C7.28503 83.7734 5.44644 81.8667 4.29419 79.5215C2.98425 76.8554 2.98425 73.3653 2.98425 66.385V45.6124Z" fill="#176EF0"/>
<path d="M59.0704 32.3179V9.88345C59.0704 7.5567 59.0704 6.39332 58.6337 5.50462C58.2497 4.72289 57.6368 4.08733 56.883 3.68902C56.026 3.23621 54.9042 3.23621 52.6605 3.23621H17.4064C15.1627 3.23621 14.0409 3.23621 13.184 3.68902C12.4301 4.08733 11.8173 4.72289 11.4332 5.50462C10.9966 6.39332 10.9966 7.5567 10.9966 9.88345V32.3179M27.0212 19.8543V15.6998M43.0458 19.8543V15.6998M22.2138 86.3268H47.8532C54.5841 86.3268 57.9496 86.3268 60.5205 84.9683C62.7819 83.7734 64.6205 81.8667 65.7727 79.5215C67.0827 76.8554 67.0827 73.3653 67.0827 66.385V45.6124C67.0827 40.9589 67.0827 38.6321 66.2094 36.8547C65.4412 35.2913 64.2155 34.0202 62.7079 33.2235C60.994 32.3179 58.7503 32.3179 54.263 32.3179H15.8039C11.3166 32.3179 9.07297 32.3179 7.35905 33.2235C5.85143 34.0202 4.62571 35.2913 3.85754 36.8547C2.98425 38.6321 2.98425 40.9589 2.98425 45.6124V66.385C2.98425 73.3653 2.98425 76.8554 4.29419 79.5215C5.44644 81.8667 7.28503 83.7734 9.54644 84.9683C12.1173 86.3268 15.4828 86.3268 22.2138 86.3268Z" stroke="#176EF0" stroke-width="4.74803" stroke-linecap="round" stroke-linejoin="round"/>
</svg>


        </g>
    </symbol>

    <symbol id="twitter" viewBox="0 0 612 612">
        <g>
            <path d="M612,116.258c-22.525,9.981-46.694,16.75-72.088,19.772c25.929-15.527,45.777-40.155,55.184-69.411
                c-24.322,14.379-51.169,24.82-79.775,30.48c-22.907-24.437-55.49-39.658-91.63-39.658c-69.334,0-125.551,56.217-125.551,125.513
                c0,9.828,1.109,19.427,3.251,28.606C197.065,206.32,104.556,156.337,42.641,80.386c-10.823,18.51-16.98,40.078-16.98,63.101
                c0,43.559,22.181,81.993,55.835,104.479c-20.575-0.688-39.926-6.348-56.867-15.756v1.568c0,60.806,43.291,111.554,100.693,123.104
                c-10.517,2.83-21.607,4.398-33.08,4.398c-8.107,0-15.947-0.803-23.634-2.333c15.985,49.907,62.336,86.199,117.253,87.194
                c-42.947,33.654-97.099,53.655-155.916,53.655c-10.134,0-20.116-0.612-29.944-1.721c55.567,35.681,121.536,56.485,192.438,56.485
                c230.948,0,357.188-191.291,357.188-357.188l-0.421-16.253C573.872,163.526,595.211,141.422,612,116.258z"/>
        </g>
    </symbol>
</svg>
