<svg width="25" height="24" viewBox="0 0 25 24" fill="none" xmlns="http://www.w3.org/2000/svg">
<path d="M3.5 7.8C3.5 6.11984 3.5 5.27976 3.82698 4.63803C4.1146 4.07354 4.57354 3.6146 5.13803 3.32698C5.77976 3 6.61984 3 8.3 3H16.7C18.3802 3 19.2202 3 19.862 3.32698C20.4265 3.6146 20.8854 4.07354 21.173 4.63803C21.5 5.27976 21.5 6.11984 21.5 7.8V13.5C21.5 14.8978 21.5 15.5967 21.2716 16.1481C20.9672 16.8831 20.3831 17.4672 19.6481 17.7716C19.0967 18 18.3978 18 17 18C16.5114 18 16.2671 18 16.0405 18.0535C15.7383 18.1248 15.4569 18.2656 15.2185 18.4645C15.0397 18.6137 14.8931 18.8091 14.6 19.2L13.14 21.1467C12.9229 21.4362 12.8143 21.5809 12.6812 21.6327C12.5647 21.678 12.4353 21.678 12.3188 21.6327C12.1857 21.5809 12.0771 21.4362 11.86 21.1467L10.4 19.2C10.1069 18.8091 9.96028 18.6137 9.7815 18.4645C9.54312 18.2656 9.26169 18.1248 8.95951 18.0535C8.73287 18 8.48858 18 8 18C6.60218 18 5.90326 18 5.35195 17.7716C4.61687 17.4672 4.03284 16.8831 3.72836 16.1481C3.5 15.5967 3.5 14.8978 3.5 13.5V7.8Z" stroke="#292929" stroke-width="2" stroke-linecap="round" stroke-linejoin="round"/>
</svg>
