<svg width="19" height="19" viewBox="0 0 19 19" fill="none" xmlns="http://www.w3.org/2000/svg">
<path d="M13.0013 12C10.7913 13.333 7.20925 13.333 5.00125 12M16.0013 5.70977L10.6683 1.56177C10.2002 1.19768 9.62421 1 9.03125 1C8.43829 1 7.86226 1.19768 7.39425 1.56177L2.06025 5.70977C1.73969 5.95905 1.48034 6.2783 1.30201 6.64312C1.12367 7.00794 1.03106 7.40869 1.03125 7.81477V15.0148C1.03125 15.5452 1.24196 16.0539 1.61704 16.429C1.99211 16.8041 2.50082 17.0148 3.03125 17.0148H15.0313C15.5617 17.0148 16.0704 16.8041 16.4455 16.429C16.8205 16.0539 17.0312 15.5452 17.0312 15.0148V7.81477C17.0312 6.99177 16.6513 6.21477 16.0013 5.70977Z" stroke="black" stroke-width="2" stroke-linecap="round" stroke-linejoin="round"/>
</svg>
