<svg width="49" height="49" viewBox="0 0 49 49" fill="none" xmlns="http://www.w3.org/2000/svg">
<rect x="8.5" y="8.5" width="32" height="32" rx="16" fill="#EE8208"/>
<path d="M24.4997 17.06C25.7568 17.06 26.7794 18.0826 26.7794 19.3396C26.7794 20.5957 25.7566 21.6182 24.4997 21.6182C23.2435 21.6182 22.2207 20.5957 22.2207 19.3396C22.2204 18.0823 23.2437 17.06 24.4997 17.06ZM24.4997 24.8434C27.5362 24.8434 30.0056 22.3748 30.0056 19.3396C30.0056 16.3029 27.5365 13.8333 24.4997 13.8333C21.4635 13.8333 18.9939 16.3031 18.9939 19.3396C18.9939 22.3748 21.4635 24.8434 24.4997 24.8434ZM26.7272 29.3344C27.8598 29.0764 28.9407 28.6289 29.9242 28.0106C30.2862 27.7828 30.543 27.4205 30.6379 27.0035C30.7328 26.5864 30.6582 26.1487 30.4304 25.7866C30.3178 25.6072 30.1709 25.4517 29.9981 25.3291C29.8253 25.2064 29.63 25.1191 29.4234 25.072C29.2168 25.0249 29.003 25.019 28.7941 25.0546C28.5853 25.0902 28.3855 25.1667 28.2062 25.2796C25.9505 26.6977 23.0474 26.6966 20.7936 25.2796C20.6143 25.1666 20.4145 25.0902 20.2057 25.0545C19.9968 25.0189 19.783 25.0248 19.5764 25.0719C19.3699 25.119 19.1746 25.2064 19.0019 25.329C18.8291 25.4516 18.6822 25.6071 18.5696 25.7866C18.3417 26.1486 18.267 26.5862 18.3618 27.0033C18.4566 27.4204 18.7131 27.7827 19.0751 28.0106C20.0584 28.6286 21.1391 29.0762 22.2715 29.3344L19.1936 32.4128C18.8912 32.7154 18.7213 33.1257 18.7214 33.5535C18.7214 33.9814 18.8915 34.3916 19.194 34.6941C19.4966 34.9966 19.907 35.1665 20.3348 35.1664C20.7626 35.1663 21.1729 34.9963 21.4754 34.6937L24.4992 31.6693L27.5249 34.694C27.6745 34.8438 27.8522 34.9627 28.0478 35.0438C28.2434 35.1248 28.453 35.1666 28.6647 35.1666C28.8764 35.1666 29.0861 35.1248 29.2817 35.0438C29.4773 34.9627 29.6549 34.8438 29.8045 34.694C29.9546 34.5444 30.0736 34.3667 30.1549 34.171C30.2361 33.9753 30.2779 33.7655 30.2779 33.5536C30.2779 33.3418 30.2361 33.132 30.1549 32.9363C30.0736 32.7406 29.9546 32.5629 29.8045 32.4133L26.7272 29.3344Z" fill="white"/>
</svg>
