<svg width="33" height="33" viewBox="0 0 33 33" fill="none" xmlns="http://www.w3.org/2000/svg">
<g clip-path="url(#clip0_214_2985)">
<rect x="0.5" y="0.699951" width="32" height="32" rx="16" fill="#FF6600"/>
<path d="M14.8886 22.2723C14.8886 23.3319 14.0167 24.1936 12.9443 24.1936C11.8718 24.1936 11 23.3319 11 22.2723C11 21.2124 11.8718 20.3507 12.9443 20.3507C14.0167 20.3507 14.8886 21.2127 14.8886 22.2723ZM25.9997 24.194C26.0291 19.7744 23.9615 15.3955 20.4971 12.6006C17.8578 10.4229 14.4406 9.18847 11 9.20003V12.63C15.0711 12.5834 19.0834 14.7727 21.1744 18.2318C22.2808 20.0263 22.8678 22.0866 22.8713 24.188H25.9997V24.194ZM20.6977 24.194C20.7151 21.3525 19.3485 18.5576 17.1157 16.7757C15.4071 15.3899 13.2097 14.6095 11.0004 14.6214V17.5095C13.404 17.4804 15.7608 18.843 16.9094 20.9332C17.4691 21.9332 17.7631 23.0571 17.7639 24.2H20.6977V24.194Z" fill="white"/>
</g>
<defs>
<clipPath id="clip0_214_2985">
<rect width="32" height="32" fill="white" transform="translate(0.5 0.699951)"/>
</clipPath>
</defs>
</svg>
