<svg width="49" height="49" viewBox="0 0 49 49" fill="none" xmlns="http://www.w3.org/2000/svg">
<rect x="8.5" y="8.69995" width="32" height="32" rx="16" fill="#419FD9"/>
<path fill-rule="evenodd" clip-rule="evenodd" d="M28.0567 32.6228C29.1751 33.1121 29.5944 32.087 29.5944 32.087L32.5534 17.2223C32.5301 16.2205 31.1788 16.8263 31.1788 16.8263L14.6133 23.3266C14.6133 23.3266 13.8212 23.6062 13.8911 24.0955C13.961 24.5848 14.59 24.8177 14.59 24.8177L18.7605 26.2157C18.7605 26.2157 20.0187 30.3395 20.2749 31.1317C20.5079 31.9006 20.7176 31.9239 20.7176 31.9239C20.9506 32.0171 21.1603 31.854 21.1603 31.854L23.863 29.4076L28.0567 32.6228ZM28.7792 19.8551C28.7792 19.8551 29.3616 19.5056 29.3383 19.8551C29.3383 19.8551 29.4315 19.9017 29.1287 20.2279C28.8491 20.5074 22.2555 26.4253 21.3702 27.2175C21.3003 27.2641 21.2537 27.334 21.2537 27.4272L20.9974 29.6172C20.9508 29.8502 20.6479 29.8735 20.578 29.6638L19.483 26.0758C19.4364 25.936 19.483 25.773 19.6228 25.6798L28.7792 19.8551Z" fill="white"/>
</svg>
