<svg width="49" height="49" viewBox="0 0 49 49" fill="none" xmlns="http://www.w3.org/2000/svg">
<g id="Viber">
<g id="Viber_2">
<rect id="Rectangle" x="8.5" y="8.5" width="32" height="32" rx="16" fill="#675DA9"/>
<g id="Group">
<path id="Vector" d="M32.3366 16.623C31.8074 16.1364 29.6647 14.5785 24.8886 14.5572C24.8886 14.5572 19.2588 14.2157 16.5143 16.734C14.9863 18.262 14.4485 20.4943 14.393 23.2686C14.3375 26.0387 14.265 31.2331 19.2716 32.6416H19.2759L19.2716 34.7886C19.2716 34.7886 19.2417 35.6593 19.8137 35.8343C20.5051 36.0477 20.9149 35.3861 21.5764 34.6733C21.9392 34.2806 22.4386 33.7087 22.8185 33.2691C26.2416 33.555 28.8751 32.8977 29.1739 32.7996C29.8653 32.5734 33.7793 32.074 34.4153 26.8795C35.0726 21.5357 34.0952 18.151 32.3366 16.623ZM32.9171 26.5039C32.3793 30.8405 29.208 31.1136 28.6233 31.3014C28.3757 31.3825 26.0623 31.9587 23.1514 31.7667C23.1514 31.7667 20.9832 34.3831 20.3088 35.0617C20.2021 35.1684 20.0783 35.2111 19.9972 35.1898C19.882 35.1599 19.8478 35.0233 19.8521 34.8227C19.8521 34.5325 19.8692 31.2502 19.8692 31.2502C19.8649 31.2502 19.8649 31.2502 19.8692 31.2502C15.6308 30.0764 15.8784 25.6546 15.9253 23.3412C15.9723 21.0278 16.4076 19.1284 17.7009 17.8522C20.0185 15.7523 24.8032 16.0639 24.8032 16.0639C28.841 16.0809 30.7745 17.2974 31.2226 17.7029C32.7122 18.9833 33.472 22.0351 32.9171 26.5039Z" fill="white"/>
<path id="Vector_2" d="M26.8554 23.4223C26.7145 23.4223 26.595 23.3114 26.5865 23.1662C26.5395 22.2486 26.1085 21.8004 25.2292 21.7534C25.0798 21.7449 24.9646 21.6169 24.9731 21.4675C24.9816 21.3181 25.1097 21.2028 25.2591 21.2114C26.42 21.2754 27.0688 21.9412 27.1286 23.1364C27.1371 23.2857 27.0219 23.4138 26.8725 23.4181C26.8639 23.4223 26.8597 23.4223 26.8554 23.4223Z" fill="white"/>
<path id="Vector_3" d="M28.2385 23.8834H28.2342C28.0848 23.8791 27.9653 23.7553 27.9696 23.606C27.9909 22.684 27.7263 21.9371 27.1629 21.3225C26.6037 20.7078 25.8312 20.3749 24.8111 20.3024C24.6617 20.2895 24.5507 20.1615 24.5635 20.0121C24.5763 19.8627 24.7044 19.7518 24.8537 19.7646C26.0062 19.8499 26.9153 20.2511 27.5641 20.9597C28.2171 21.6725 28.533 22.5645 28.5116 23.6188C28.5073 23.7682 28.3836 23.8834 28.2385 23.8834Z" fill="white"/>
<path id="Vector_4" d="M29.656 24.4381C29.5066 24.4381 29.3871 24.3185 29.3871 24.1692C29.3743 22.5174 28.9005 21.2582 27.9359 20.315C26.9841 19.3845 25.7762 18.9107 24.3548 18.8979C24.2054 18.8979 24.0859 18.7741 24.0859 18.6247C24.0859 18.4753 24.2097 18.3558 24.3548 18.3558C25.9213 18.3686 27.253 18.8936 28.3072 19.9265C29.3657 20.9595 29.9078 22.385 29.9249 24.1606C29.9291 24.3143 29.8096 24.4381 29.656 24.4381C29.6602 24.4381 29.6602 24.4381 29.656 24.4381Z" fill="white"/>
<path id="Vector_5" d="M25.2938 26.7643C25.2938 26.7643 25.6736 26.7984 25.8785 26.5466L26.2755 26.0472C26.4675 25.7997 26.9328 25.6418 27.3852 25.8936C27.637 26.0344 28.0937 26.3161 28.3754 26.5253C28.6785 26.7472 29.2931 27.2594 29.2974 27.2637C29.5919 27.5112 29.6602 27.874 29.4596 28.2624C29.4596 28.2624 29.4596 28.2667 29.4596 28.271C29.2547 28.6338 28.9772 28.9752 28.6315 29.2911C28.6273 29.2911 28.6273 29.2954 28.623 29.2954C28.337 29.5344 28.0553 29.671 27.7821 29.7008C27.748 29.7094 27.7096 29.7094 27.6584 29.7094C27.5389 29.7094 27.4193 29.6923 27.2998 29.6539L27.2913 29.6411C26.8645 29.5216 26.1559 29.2228 24.9779 28.5698C24.2096 28.1472 23.5737 27.7161 23.0316 27.285C22.7456 27.0588 22.4554 26.807 22.1566 26.5082C22.1481 26.4997 22.1353 26.4869 22.1267 26.4783C22.1182 26.4698 22.1054 26.457 22.0969 26.4484C22.0883 26.4399 22.0755 26.4271 22.067 26.4186C22.0584 26.41 22.0456 26.3972 22.0371 26.3887C21.7426 26.0899 21.4865 25.7997 21.2603 25.5137C20.8292 24.9759 20.3981 24.3357 19.9756 23.5674C19.3225 22.3851 19.0237 21.6766 18.9042 21.254L18.8914 21.2455C18.853 21.126 18.8359 21.0065 18.8359 20.8869C18.8359 20.8357 18.8359 20.7973 18.8445 20.7632C18.8786 20.4857 19.0152 20.2083 19.25 19.9223C19.25 19.9181 19.2542 19.9181 19.2542 19.9138C19.5701 19.5638 19.9115 19.2906 20.2743 19.0858C20.2743 19.0858 20.2786 19.0858 20.2829 19.0858C20.667 18.8851 21.0298 18.9534 21.2816 19.2479C21.2816 19.2479 21.7981 19.8668 22.02 20.1699C22.2292 20.4559 22.5109 20.9083 22.6517 21.1601C22.9036 21.6125 22.7456 22.0778 22.4981 22.2699L21.9987 22.6668C21.7469 22.8717 21.781 23.2515 21.781 23.2515C21.781 23.2515 22.5194 26.06 25.2938 26.7643Z" fill="white"/>
</g>
</g>
</g>
</svg>
