<svg width="49" height="49" viewBox="0 0 49 49" fill="none" xmlns="http://www.w3.org/2000/svg">
<rect x="8.5" y="8.69995" width="32" height="32" rx="16" fill="#5181B8"/>
<path fill-rule="evenodd" clip-rule="evenodd" d="M34.6774 19.7231C34.8257 19.2287 34.6774 18.8652 33.9715 18.8652H31.6377C31.0442 18.8652 30.7708 19.1791 30.6224 19.5254C30.6224 19.5254 29.4355 22.4182 27.7541 24.2973C27.2101 24.8413 26.9629 25.0142 26.6662 25.0142C26.5178 25.0142 26.3031 24.8413 26.3031 24.3468V19.7231C26.3031 19.1296 26.1309 18.8652 25.6363 18.8652H21.9687C21.598 18.8652 21.3749 19.1406 21.3749 19.4017C21.3749 19.9643 22.2155 20.094 22.3021 21.6764V25.1134C22.3021 25.8669 22.1661 26.0036 21.8694 26.0036C21.0782 26.0036 19.1537 23.0976 18.0121 19.7726C17.7884 19.1263 17.564 18.8652 16.9676 18.8652H14.6337C13.9669 18.8652 13.8335 19.1791 13.8335 19.5254C13.8335 20.1435 14.6248 23.2096 17.5177 27.2645C19.4465 30.0335 22.1634 31.5349 24.636 31.5349C26.1197 31.5349 26.3031 31.2014 26.3031 30.6271V28.5342C26.3031 27.8673 26.4436 27.7343 26.9132 27.7343C27.2596 27.7343 27.8529 27.9073 29.2378 29.2425C30.8201 30.8247 31.0809 31.5349 31.9711 31.5349H34.3049C34.9718 31.5349 35.3052 31.2014 35.1128 30.5435C34.9024 29.8876 34.1469 28.9364 33.1443 27.8085C32.6004 27.1655 31.7844 26.4732 31.5373 26.1271C31.191 25.682 31.2899 25.4843 31.5373 25.0889C31.5373 25.0889 34.3806 21.0833 34.6774 19.7233V19.7231Z" fill="white"/>
</svg>
