<svg width="49" height="49" viewBox="0 0 49 49" fill="none" xmlns="http://www.w3.org/2000/svg">
<rect x="8.5" y="8.5" width="32" height="32" rx="16" fill="#0DC143"/>
<path d="M31.667 17.3076C29.9517 15.5418 27.5805 14.5833 25.1589 14.5833C20.0129 14.5833 15.876 18.7706 15.9265 23.8661C15.9265 25.4805 16.3805 27.0445 17.1373 28.4571L15.8256 33.2499L20.7193 31.9887C22.0814 32.7454 23.5949 33.0986 25.1084 33.0986C30.2039 33.0986 34.3409 28.9112 34.3409 23.8157C34.3409 21.3436 33.3823 19.0229 31.667 17.3076ZM25.1589 31.5346C23.7967 31.5346 22.4346 31.1814 21.2742 30.4751L20.9715 30.3238L18.0454 31.0805L18.8021 28.2049L18.6003 27.9022C16.3805 24.3202 17.44 19.5778 21.0724 17.358C24.7048 15.1382 29.3967 16.1977 31.6166 19.8301C33.8364 23.4625 32.7769 28.1544 29.1445 30.3742C27.9841 31.131 26.5715 31.5346 25.1589 31.5346ZM29.5985 25.9346L29.0436 25.6824C29.0436 25.6824 28.2364 25.3292 27.7319 25.0769C27.6814 25.0769 27.631 25.0265 27.5805 25.0265C27.4292 25.0265 27.3283 25.0769 27.2274 25.1274C27.2274 25.1274 27.1769 25.1778 26.4706 25.9851C26.4202 26.086 26.3193 26.1364 26.2184 26.1364H26.1679C26.1175 26.1364 26.0166 26.086 25.9661 26.0355L25.7139 25.9346C25.1589 25.6824 24.6544 25.3796 24.2508 24.976C24.1499 24.8751 23.9985 24.7742 23.8976 24.6733C23.5445 24.3202 23.1913 23.9166 22.9391 23.4625L22.8886 23.3616C22.8382 23.3112 22.8382 23.2607 22.7877 23.1598C22.7877 23.0589 22.7877 22.958 22.8382 22.9076C22.8382 22.9076 23.04 22.6553 23.1913 22.504C23.2922 22.4031 23.3427 22.2517 23.4436 22.1508C23.5445 21.9995 23.5949 21.7977 23.5445 21.6463C23.494 21.3941 22.8886 20.0319 22.7373 19.7292C22.6364 19.5778 22.5355 19.5274 22.3841 19.4769H22.2328C22.1319 19.4769 21.9805 19.4769 21.8292 19.4769C21.7283 19.4769 21.6274 19.5274 21.5265 19.5274L21.476 19.5778C21.3751 19.6283 21.2742 19.7292 21.1733 19.7796C21.0724 19.8805 21.022 19.9815 20.9211 20.0824C20.5679 20.5364 20.3661 21.0914 20.3661 21.6463C20.3661 22.0499 20.467 22.4535 20.6184 22.8067L20.6688 22.958C21.1229 23.9166 21.7283 24.7742 22.5355 25.531L22.7373 25.7328C22.8886 25.8842 23.04 25.9851 23.1409 26.1364C24.2003 27.0445 25.4111 27.7004 26.7733 28.0535C26.9247 28.104 27.1265 28.104 27.2778 28.1544C27.4292 28.1544 27.631 28.1544 27.7823 28.1544C28.0346 28.1544 28.3373 28.0535 28.5391 27.9526C28.6904 27.8517 28.7913 27.8517 28.8922 27.7508L28.9931 27.6499C29.094 27.549 29.1949 27.4986 29.2958 27.3977C29.3967 27.2968 29.4976 27.1959 29.5481 27.095C29.649 26.8932 29.6994 26.6409 29.7499 26.3887C29.7499 26.2878 29.7499 26.1364 29.7499 26.0355C29.7499 26.0355 29.6994 25.9851 29.5985 25.9346Z" fill="white"/>
</svg>
