<svg width="49" height="49" viewBox="0 0 49 49" fill="none" xmlns="http://www.w3.org/2000/svg">
<g id="YouTube">
<g id="YouTube_2">
<rect id="Rectangle" x="9" y="9.19995" width="32" height="32" rx="16" fill="#FF0000"/>
<path id="Exclude" fill-rule="evenodd" clip-rule="evenodd" d="M32.8253 18.6266C33.682 18.8572 34.3574 19.5327 34.5881 20.3893C35.0164 21.9544 34.9999 25.2163 34.9999 25.2163C34.9999 25.2163 34.9999 28.4618 34.5881 30.0269C34.3574 30.8835 33.682 31.559 32.8253 31.7896C31.2602 32.2015 25 32.2015 25 32.2015C25 32.2015 18.7562 32.2015 17.1746 31.7731C16.318 31.5425 15.6425 30.8671 15.4119 30.0104C15 28.4618 15 25.1999 15 25.1999C15 25.1999 15 21.9544 15.4119 20.3893C15.6425 19.5327 16.3344 18.8407 17.1746 18.6101C18.7397 18.1982 25 18.1982 25 18.1982C25 18.1982 31.2602 18.1982 32.8253 18.6266ZM28.2124 25.1999L23.0065 28.1983V22.2016L28.2124 25.1999Z" fill="white"/>
</g>
</g>
</svg>
