<svg width="101" height="100" viewBox="0 0 101 100" fill="none" xmlns="http://www.w3.org/2000/svg">
<path fill-rule="evenodd" clip-rule="evenodd" d="M61.4086 22.3998C59.9 22.3998 58.681 21.2057 58.681 19.7298C58.681 18.254 59.9 17.0618 61.4086 17.0618C62.9171 17.0618 64.1362 18.2521 64.1362 19.7298C64.1362 21.2057 62.9171 22.3998 61.4086 22.3998ZM39.5914 22.3998C38.0829 22.3998 36.8638 21.2057 36.8638 19.7298C36.8638 18.254 38.0829 17.0618 39.5914 17.0618C41.1 17.0618 42.319 18.2521 42.319 19.7298C42.319 21.2057 41.1 22.3998 39.5914 22.3998ZM63.02 11.7028L64.0371 10.1982L65.0543 8.71664L67.319 5.38354C67.3854 5.28663 67.4315 5.17719 67.4546 5.06183C67.4777 4.94647 67.4773 4.82759 67.4535 4.71238C67.4296 4.59718 67.3828 4.48804 67.3158 4.39157C67.2488 4.2951 67.1631 4.2133 67.0638 4.15112C66.8642 4.0188 66.6209 3.97076 66.3864 4.01738C66.1519 4.06399 65.9451 4.20153 65.8105 4.40029L62.3533 9.46797L61.3152 10.9936C57.8564 9.69342 54.1923 9.03368 50.5 9.04631C46.8077 9.03415 43.1437 9.69387 39.6848 10.9936L38.6524 9.46797L37.6314 7.96914L35.201 4.40029C35.0627 4.20271 34.854 4.06649 34.6183 4.02006C34.3826 3.97364 34.1383 4.02059 33.9362 4.15112C33.8379 4.21422 33.7532 4.29646 33.687 4.393C33.6208 4.48953 33.5744 4.59841 33.5506 4.71324C33.5268 4.82807 33.5261 4.94653 33.5485 5.06164C33.5709 5.17675 33.6159 5.2862 33.681 5.38354L35.9476 8.71664L36.9629 10.1982L37.9838 11.7028C30.2695 15.2237 25.0486 21.8938 25.0486 29.526H75.9514C75.9514 21.8938 70.7324 15.2237 63.0219 11.7009L63.02 11.7028ZM25.439 33.0852H25.0486V72.2582C25.0486 75.3689 27.6276 77.9009 30.8086 77.9009H34.9629C34.8159 78.3808 34.7414 78.8802 34.7419 79.3824V90.6601C34.7419 93.6099 37.1895 96 40.199 96C43.2086 96 45.6562 93.6099 45.6562 90.6601V79.3824C45.6562 78.8649 45.5724 78.3704 45.4352 77.9009H55.5648C55.4224 78.3817 55.3499 78.8807 55.3495 79.3824V90.6601C55.3495 93.6099 57.7914 96 60.801 96C63.8162 96 66.2638 93.6099 66.2638 90.6601V79.3824C66.2638 78.8649 66.18 78.3704 66.0371 77.9009H70.1971C73.3781 77.9009 75.9514 75.3708 75.9514 72.2582V33.0852H25.439ZM15.9571 33.0852C12.9419 33.0852 10.5 35.4753 10.5 38.4231V61.2776C10.5 64.2254 12.9419 66.6174 15.9571 66.6174C18.9667 66.6174 21.4086 64.2254 21.4086 61.2776V38.4231C21.4086 35.4753 18.9667 33.0852 15.9571 33.0852ZM85.0486 33.0852C82.0333 33.0852 79.5914 35.4753 79.5914 38.4231V61.2776C79.5914 64.2254 82.0333 66.6174 85.0486 66.6174C88.0581 66.6174 90.5 64.2254 90.5 61.2776V38.4231C90.5 35.4753 88.0581 33.0852 85.0486 33.0852Z" fill="#95CF00"/>
</svg>
