<svg width="101" height="100" viewBox="0 0 101 100" fill="none" xmlns="http://www.w3.org/2000/svg">
<path d="M66.082 1.8125C63.2695 2.375 57.6445 5.8125 55.3945 8.375C52.707 11.375 50.8945 15.5625 50.6445 19.5L50.3945 23.125H52.707C58.2695 23.125 66.2695 16.5625 68.207 10.375C69.2695 7 69.6445 1.1875 68.832 1.3125C68.5195 1.375 67.332 1.5625 66.082 1.8125Z" fill="#292929"/>
<path d="M29.1445 22.875C23.3945 24.9375 19.082 28.75 16.5195 34.0625C13.6445 40 13.3945 41.25 13.457 48.6875C13.582 59.5 16.2695 68.0625 22.7695 78.1875C29.582 88.8125 35.582 91.4375 44.457 87.75C49.6445 85.5625 55.7695 85.4375 60.207 87.4375C64.6445 89.4375 69.707 89.8125 72.707 88.375C75.207 87.1875 78.707 84 82.207 79.6875C84.332 77.0625 89.2695 67.5625 89.2695 66.125C89.2695 65.6875 88.332 64.75 87.2695 64.0625C84.332 62.375 80.332 58.1875 78.957 55.3125C77.2695 51.875 77.207 43.1875 78.8945 39.875C80.082 37.375 84.3945 32.5 86.457 31.3125C87.6445 30.625 87.5195 30.4375 84.3945 27.5625C79.8945 23.4375 75.5195 21.875 68.582 21.875C64.582 21.875 62.2695 22.25 58.957 23.4375C53.3945 25.375 51.082 25.375 46.1445 23.4375C42.8945 22.1875 41.1445 21.875 36.832 21.9375C33.8945 22 30.3945 22.375 29.1445 22.875Z" fill="#292929"/>
</svg>
