<svg width="100" height="100" viewBox="0 0 100 100" fill="none" xmlns="http://www.w3.org/2000/svg">
<g clip-path="url(#clip0_558_1001)">
<path d="M94.3808 0.679977C94.2608 0.779976 88.1608 1.65998 76.2008 3.29998C74.1608 3.57998 70.9208 4.01998 69.0008 4.27998C67.0808 4.55997 63.8008 4.99998 61.7008 5.29998C59.6208 5.57998 56.3808 6.03998 54.5008 6.29998C52.6408 6.55997 49.2408 7.01998 46.9608 7.33998L42.8008 7.89997V27.24V46.6H69.6008H96.4008V23.6V0.599976H95.4408C94.9008 0.599976 94.4208 0.639977 94.3808 0.679977Z" fill="#0077DB"/>
<path d="M36.7016 8.73997C36.3816 8.77998 34.4816 9.03998 32.5016 9.31998C24.8616 10.4 21.9616 10.8 18.2016 11.3C14.4616 11.8 12.1616 12.12 3.56156 13.34L-0.398438 13.9V30.24V46.6H18.8016H38.0016V27.6C38.0016 9.61998 37.9816 8.59998 37.6616 8.61998C37.4616 8.63998 37.0416 8.69998 36.7016 8.73997Z" fill="#0077DB"/>
<path d="M-0.398438 67.7599V84.0999L3.56156 84.6599C10.9816 85.7199 14.3016 86.1799 18.1016 86.6999C23.9216 87.4799 28.9616 88.1799 32.7016 88.6999C34.5816 88.9599 36.5216 89.2399 37.0616 89.2999L38.0016 89.4199V70.4199V51.3999H18.8016H-0.398438V67.7599Z" fill="#0077DB"/>
<path d="M42.8008 70.7399V90.0999L46.9608 90.6599C49.2408 90.9799 52.6408 91.4399 54.5008 91.6999C56.3808 91.9599 59.6208 92.4199 61.7008 92.6999C63.8008 92.9799 67.0408 93.4399 68.9008 93.6999C73.5408 94.3399 78.9408 95.0799 83.5008 95.6999C85.6008 95.9999 88.8408 96.4599 90.7008 96.7399C92.5808 97.0199 94.6208 97.2999 95.2608 97.3399L96.4008 97.4399V74.4199V51.3999H69.6008H42.8008V70.7399Z" fill="#0077DB"/>
</g>
<defs>
<clipPath id="clip0_558_1001">
<rect width="100" height="100" fill="white"/>
</clipPath>
</defs>
</svg>
